<?xml version="1.0" encoding="UTF-8"?>
<svg id="Natura11y_Logo" data-name="Natura11y Logo" xmlns="http://www.w3.org/2000/svg" width="282" height="79.86" viewBox="0 0 282 79.86">
  <g>
    <path d="M0,14.12h42.33L56.44,0H0v14.12Z"/>
    <path d="M56.44,0v28.24H0v42.36h42.33l14.11-14.12H14.11v-14.12h42.33v28.24h14.11V0h-14.11Z"/>
  </g>
  <g>
    <path d="M111.01,0l-13.32,32.98h7.44l3.03-7.85h13.43l3.06,7.85h7.61L119.03,0h-8.02ZM110.4,19.31l4.47-11.64,4.47,11.64h-8.95,0Z"/>
    <path d="M146.3,32.98l9.34-24.16h-7.11l-5.99,17.28-6.21-17.28h-7.25l9.35,24.16h7.88Z"/>
    <path d="M166.62,8.82h-7.29v24.15h7.29V8.82Z"/>
    <path d="M159.34.04v5.61l.11.11h7.18V.04h-7.29Z"/>
    <path d="M176.2,32.06c3.51,2.24,8.65,2.02,11.65-.97l1.26-1.66v3.54h7.15V0h-7.29v12.15l-.76-1.01c-3.01-3.56-8.78-3.75-12.45-1.11-6.39,4.59-6.29,17.77.43,22.05h0ZM183.55,13.62c5.97-.3,6.74,8.31,4.55,12.15-1.85,3.25-6.64,3.24-8.52.02-2.15-3.68-1.57-11.9,3.97-12.18h0Z"/>
    <path d="M216.24,18.43c-2.39.27-4.82.41-7.2.74-4.84.68-9.25,2.52-8.71,8.27.67,7.12,11.44,7.84,15.34,3.36.33-.39.58-.84.9-1.23v3.4h6.93v-16.02c-.43-7.41-6.96-9.42-13.38-8.56-4.3.58-8.26,2.93-8.91,7.55l7.05.76c.05-2.97,3.16-3.81,5.61-3.2,1.42.35,2.34,1.49,2.47,2.95.03.37.06,1.48,0,1.81-.02.08-.02.15-.12.17h0ZM216.36,24.05c0,.96-.75,2.52-1.41,3.22-2.03,2.18-7.77,2.49-7.48-1.49.15-2.08,2.41-2.51,4.09-2.77,1.59-.25,3.2-.32,4.79-.59v1.63Z"/>
    <path d="M237.09,10.85l-1.26,1.81v-3.84h-7.07v24.15h7.29v-12.76c.04-3.39,1.22-6.51,5.17-6.26,2.92.18,3.8,2.59,3.86,5.17v13.85h7.29v-15.88c.29-8.27-9.72-11.73-15.27-6.25h0Z"/>
    <path d="M268.22,8.26c-15.34.93-15.71,23.12-1.31,25.13,7.14,1,13.68-2.5,14.87-9.95,1.45-9.05-4.41-15.73-13.56-15.18ZM274.02,24.65c-1.63,4.71-7.82,4.8-9.55.12-1.41-3.82-.77-10.89,4.46-11.15,5.66-.28,6.5,6.96,5.09,11.02h0Z"/>
    <path d="M111.67,37.6h-13.97v32.97h13.97c10.96-.46,17.23-8.79,15.68-19.55-1.2-8.31-7.51-13.08-15.68-13.43h0ZM117.97,61.34c-2.95,4.23-7.94,3.27-12.44,3.38l-.25-.11v-21.04l.25-.11c4.2.13,8.97-.81,12.02,2.79,3.01,3.55,3.05,11.34.42,15.09h0Z"/>
    <path d="M139.66,46.42h-7.29v24.15h7.29v-24.15Z"/>
    <path d="M132.37,43.34l.11.11h7.18v-5.71h-7.29v5.61Z"/>
    <path d="M162.07,46.5v3.32c-1.59-2.45-4.05-3.75-6.96-3.91-14.16-.78-14.79,22.8-1.8,24.08,3.07.3,5.96-.54,8.01-2.89l.61-.79c-.08,2.75.6,6.31-2.24,7.91-1.95,1.09-6.09.95-7.34-1.16-.19-.33-.29-.68-.42-1.04l-7.07.72c-.11.15.28,1.15.37,1.38,2.45,5.87,11.36,6.8,16.69,5.15,4.64-1.43,7.07-5.01,7.31-9.81v-22.96h-7.16ZM161.57,61.28c-1.75,4.83-8.4,4.44-9.79-.6-1.04-3.75-.05-9.2,4.66-9.46,5.43-.31,6.62,5.98,5.14,10.06Z"/>
    <path d="M181.6,46.42h-7.29v24.15h7.29v-24.15Z"/>
    <path d="M174.32,43.34l.11.11h7.18v-5.71h-7.29v5.61Z"/>
    <path d="M197.08,64.75c-.37-.33-.55-.85-.63-1.32-.02-.11-.09-.56-.09-.64v-11.17h5.63v-5.21h-5.63v-6.87l-7.29,1.88v4.99h-3.54v5.21h3.54v12.4c.39,6.81,5.28,7.48,11.01,6.91.8-.08,1.62-.23,2.41-.37l-.49-5.56c-1.29.06-3.87.67-4.91-.25h0Z"/>
    <path d="M214.83,46c-4.3.58-8.26,2.93-8.91,7.55l7.05.76c.05-2.97,3.16-3.81,5.61-3.2,1.42.35,2.34,1.49,2.47,2.95.04.37.07,1.48,0,1.81-.02.08-.02.15-.12.17-2.39.27-4.81.41-7.2.74-4.84.68-9.25,2.51-8.71,8.26.67,7.12,11.44,7.84,15.34,3.36.34-.39.58-.84.9-1.23v3.4h6.93v-16.02c-.43-7.41-6.96-9.41-13.38-8.55ZM221.06,61.64c0,.96-.75,2.52-1.4,3.22-2.03,2.18-7.77,2.49-7.47-1.49.15-2.08,2.41-2.51,4.09-2.77,1.59-.25,3.2-.32,4.79-.59v1.63h0Z"/>
    <path d="M240.41,37.6h-7.29v32.97h7.29v-32.97Z"/>
  </g>
</svg>