<?xml version="1.0" encoding="UTF-8"?>
<svg id="Natura11y_Logo" data-name="Natura11y Logo" xmlns="http://www.w3.org/2000/svg" width="166" height="52" viewBox="0 0 166 52">
  <g>
    <g id="Nature">
      <polygon points="17.78 10.41 17.81 17.88 4.66 .23 0 .23 0 26.52 5.19 26.52 5.19 16.72 5.11 8.9 18.26 26.52 22.96 26.52 22.96 .23 17.78 .23 17.78 10.41"/>
      <path d="M40.24,10.18c-1.5-1.69-3.8-2.63-6.43-2.63-5.34,0-9.02,3.98-9.02,9.69s3.68,9.69,9.02,9.69c2.63,0,4.89-.94,6.43-2.67l.34,2.25h4.32V7.96h-4.32l-.34,2.22ZM34.83,22.58c-2.97,0-5.07-2.22-5.07-5.33s2.1-5.33,5.07-5.33,5.11,2.22,5.11,5.33-2.1,5.33-5.11,5.33Z"/>
      <path d="M91.92,7.59c-2.03,0-3.8.79-5.22,2.7l-.41-2.33h-4.32v18.56h5v-9.05c0-3.38,1.77-5.3,4.51-5.3,1.05,0,1.95.26,3.01.98l.07-.13c.47-1.43,1.18-2.69,2.09-3.75-1.2-1.12-3-1.68-4.72-1.68Z"/>
      <path d="M58.21,22.58c-2.2,0-3.43-1.47-3.43-4.1v-6.42h4.76v-4.09h-4.76V3.04h-4.96v4.92h-3.34v4.09h3.34v6.99c0,4.92,2.91,7.89,7.6,7.89,1.8,0,3.32-.45,4.57-1.28-.84-.98-1.48-2.17-1.9-3.53-.55.28-1.18.45-1.88.45Z"/>
      <path d="M74.75,17.69c0,2.86-1.77,4.85-4.43,4.85-2.41,0-3.95-1.65-3.95-4.51V7.96h-5v10.37c0,5.26,3.04,8.57,7.67,8.57,2.44,0,4.59-.9,6.05-2.52l.34,2.14h4.32V7.96h-5v9.73Z"/>
    </g>
    <g id="a11y">
      <path d="M111.16,10.18c-1.5-1.69-3.79-2.63-6.43-2.63-5.34,0-9.02,3.98-9.02,9.69s3.68,9.69,9.02,9.69c2.63,0,4.89-.94,6.43-2.67l.34,2.25h4.32V7.96h-4.32l-.34,2.22ZM105.75,22.58c-2.97,0-5.07-2.22-5.07-5.33s2.1-5.33,5.07-5.33,5.11,2.22,5.11,5.33-2.11,5.33-5.11,5.33Z"/>
      <polygon points="160.59 7.96 157.62 15.21 155.48 20.89 153.52 15.21 150.78 7.96 145.41 7.96 152.7 26.3 149.01 34.82 154.39 34.82 166 7.96 160.59 7.96"/>
      <polygon points="127.16 0 117.65 3.04 117.65 7.59 121.97 6.2 121.97 22.01 117.65 22.01 117.65 26.52 131.52 26.52 131.52 22.01 127.16 22.01 127.16 0"/>
      <polygon points="142.85 0 133.34 3.04 133.34 7.59 137.67 6.2 137.67 22.01 133.34 22.01 133.34 26.52 147.21 26.52 147.21 22.01 142.85 22.01 142.85 0"/>
    </g>
  </g>
  <g id="Tagline">
    <path d="M0,48.54v-11.38h3.58c1.12,0,2.1.24,2.97.72.86.48,1.54,1.15,2.03,2.01.49.86.74,1.84.74,2.96s-.25,2.09-.74,2.94c-.49.86-1.17,1.53-2.03,2.01-.86.49-1.85.73-2.97.73H0ZM1.89,46.78h1.69c.53,0,1.03-.1,1.5-.3.47-.2.87-.48,1.22-.84.35-.36.62-.77.81-1.25.19-.48.29-.99.29-1.54s-.1-1.07-.29-1.54c-.2-.48-.47-.89-.81-1.25-.35-.36-.75-.64-1.22-.84-.47-.2-.96-.3-1.5-.3h-1.69v7.87Z"/>
    <path d="M15.1,48.73c-.79,0-1.49-.18-2.1-.54-.61-.36-1.09-.86-1.45-1.5s-.53-1.38-.53-2.21.18-1.57.54-2.21.85-1.14,1.47-1.5c.62-.36,1.33-.54,2.14-.54.73,0,1.38.19,1.97.56.58.37,1.05.91,1.39,1.62.34.7.51,1.54.51,2.52h-6.13c.05.68.31,1.22.76,1.61.45.39.98.58,1.6.58.5,0,.91-.11,1.23-.33.32-.22.58-.51.76-.87l1.61.68c-.23.43-.52.81-.87,1.14s-.77.57-1.25.75c-.48.17-1.03.26-1.65.26ZM13.02,43.52h4.05c-.03-.39-.15-.71-.34-.97-.2-.25-.43-.45-.72-.58s-.58-.19-.89-.19-.61.06-.92.19c-.31.12-.57.32-.79.58-.22.26-.35.58-.39.97Z"/>
    <path d="M23.77,48.73c-.54,0-1.04-.08-1.49-.24-.46-.16-.85-.39-1.17-.69-.32-.3-.57-.65-.75-1.05l1.58-.7c.16.3.4.56.72.76.32.21.67.31,1.06.31.42,0,.76-.07,1.02-.22.25-.15.38-.35.38-.61s-.1-.44-.29-.58c-.2-.14-.47-.25-.83-.33l-.76-.21c-.77-.19-1.37-.51-1.8-.93-.43-.43-.65-.92-.65-1.47,0-.81.26-1.44.79-1.89.53-.44,1.28-.67,2.27-.67.5,0,.96.07,1.37.22.42.15.78.35,1.08.62.3.27.51.58.63.93l-1.51.68c-.11-.27-.31-.48-.62-.63-.3-.15-.64-.22-1.01-.22s-.66.08-.86.24c-.21.16-.31.38-.31.66,0,.16.09.31.28.45.18.14.45.25.8.33l.96.23c.53.13.96.33,1.3.61.34.28.58.58.75.93s.24.69.24,1.03c0,.49-.14.92-.41,1.28-.28.37-.65.65-1.13.85-.48.2-1.02.3-1.62.3Z"/>
    <path d="M29.94,38.87c-.29,0-.54-.11-.76-.32s-.32-.46-.32-.76.11-.54.32-.75c.21-.21.46-.31.76-.31s.54.1.76.31c.21.21.32.46.32.75s-.11.54-.32.76-.46.32-.76.32ZM29.03,48.54v-8.12h1.8v8.12h-1.8Z"/>
    <path d="M36.8,52c-.57,0-1.09-.05-1.55-.15s-.85-.21-1.16-.34c-.31-.13-.56-.25-.73-.37l.7-1.46c.15.08.35.17.61.28s.56.21.9.3c.35.09.74.13,1.17.13.47,0,.88-.1,1.25-.28.37-.19.66-.48.86-.87.21-.39.31-.89.31-1.5v-.81c-.28.46-.65.81-1.1,1.06-.45.25-.96.38-1.54.38-.74,0-1.38-.17-1.93-.5-.55-.34-.98-.8-1.28-1.41-.31-.6-.46-1.3-.46-2.09,0-.84.15-1.58.46-2.19.31-.62.74-1.1,1.28-1.45s1.19-.52,1.93-.52c.57,0,1.09.13,1.54.39.45.26.81.63,1.1,1.12v-1.32h1.82v7.28c0,.92-.17,1.7-.52,2.35-.35.64-.83,1.13-1.46,1.46-.63.33-1.36.5-2.19.5ZM37.02,46.83c.41,0,.77-.11,1.08-.33.31-.22.55-.51.72-.89.17-.37.26-.8.26-1.29s-.09-.93-.26-1.31c-.17-.37-.42-.67-.73-.88-.31-.21-.68-.32-1.09-.32-.43,0-.82.11-1.15.32-.33.21-.59.5-.78.88-.19.37-.28.81-.28,1.31s.09.92.28,1.29c.19.37.45.67.79.89.34.22.72.33,1.15.33Z"/>
    <path d="M43.48,48.54v-8.12h1.71l.08,1.15c.26-.43.6-.77,1.02-1,.42-.23.9-.35,1.44-.35.65,0,1.21.13,1.67.39.46.26.81.66,1.06,1.21s.37,1.26.37,2.14v4.58h-1.82v-4.16c0-.65-.07-1.15-.22-1.5s-.35-.6-.62-.74-.58-.21-.93-.21c-.61-.01-1.08.19-1.41.6-.34.41-.5,1-.5,1.77v4.24h-1.82Z"/>
    <path d="M58.07,48.54v-11.38h7v1.72h-5.12v3.02h4.52v1.69h-4.52v3.22h5.17v1.72h-7.05Z"/>
    <path d="M71.19,48.73c-.83,0-1.57-.18-2.21-.54-.64-.36-1.14-.86-1.5-1.5s-.54-1.38-.54-2.21.18-1.57.54-2.21.86-1.14,1.5-1.5c.63-.36,1.36-.54,2.19-.54s1.53.19,2.18.58c.65.38,1.13.93,1.45,1.65l-1.69.65c-.17-.36-.44-.64-.8-.86-.36-.22-.76-.32-1.22-.32s-.84.11-1.19.33c-.35.22-.62.53-.81.91-.19.38-.29.83-.29,1.32s.1.94.3,1.32c.2.38.48.69.83.91.35.22.75.33,1.19.33s.86-.12,1.22-.35c.36-.23.62-.55.8-.95l1.69.65c-.31.74-.79,1.31-1.44,1.72s-1.37.62-2.19.62Z"/>
    <path d="M80.48,48.73c-.81,0-1.54-.18-2.17-.54-.63-.36-1.13-.86-1.49-1.5s-.54-1.38-.54-2.21.18-1.57.53-2.21c.35-.64.84-1.14,1.47-1.5.63-.36,1.35-.54,2.16-.54s1.53.18,2.16.54c.63.36,1.12.86,1.47,1.5.35.64.53,1.38.53,2.21s-.17,1.57-.52,2.21-.83,1.14-1.46,1.5c-.63.36-1.34.54-2.14.54ZM80.48,47.06c.44,0,.84-.11,1.19-.33.35-.22.62-.53.81-.91.19-.38.29-.83.29-1.34s-.1-.96-.3-1.34c-.2-.38-.47-.69-.82-.91s-.75-.33-1.2-.33-.86.11-1.2.33c-.35.22-.62.52-.81.91-.19.39-.29.84-.29,1.35s.1.96.3,1.34c.2.38.48.69.83.91.35.22.76.33,1.21.33Z"/>
    <path d="M89.54,48.73c-.54,0-1.04-.08-1.5-.24s-.84-.39-1.17-.69-.57-.65-.75-1.05l1.58-.7c.16.3.4.56.72.76.32.21.67.31,1.06.31.42,0,.76-.07,1.02-.22.25-.15.38-.35.38-.61s-.1-.44-.29-.58c-.2-.14-.47-.25-.83-.33l-.76-.21c-.77-.19-1.37-.51-1.8-.93-.43-.43-.65-.92-.65-1.47,0-.81.26-1.44.79-1.89.53-.44,1.28-.67,2.27-.67.5,0,.96.07,1.37.22.42.15.78.35,1.08.62.3.27.51.58.63.93l-1.51.68c-.11-.27-.31-.48-.62-.63-.3-.15-.64-.22-1.01-.22s-.66.08-.86.24c-.21.16-.31.38-.31.66,0,.16.09.31.28.45.18.14.45.25.8.33l.96.23c.53.13.96.33,1.3.61s.58.58.75.93c.16.34.24.69.24,1.03,0,.49-.14.92-.41,1.28-.28.37-.65.65-1.13.85-.48.2-1.02.3-1.62.3Z"/>
    <path d="M96.02,51.98c-.26,0-.55-.05-.87-.15s-.63-.22-.92-.37l.68-1.48c.21.1.4.18.57.24s.31.09.42.09c.26,0,.48-.07.66-.2.18-.14.32-.33.43-.59l.44-1.04-3.61-8.06h1.98l2.47,5.98,2.42-5.98h1.98l-3.77,8.99c-.23.52-.46.98-.69,1.36-.23.39-.52.69-.87.9-.35.21-.79.32-1.33.32Z"/>
    <path d="M106.92,48.73c-.54,0-1.04-.08-1.5-.24s-.84-.39-1.17-.69-.57-.65-.75-1.05l1.58-.7c.16.3.4.56.72.76.32.21.67.31,1.06.31.42,0,.76-.07,1.02-.22.25-.15.38-.35.38-.61s-.1-.44-.29-.58c-.2-.14-.47-.25-.83-.33l-.76-.21c-.77-.19-1.37-.51-1.8-.93-.43-.43-.65-.92-.65-1.47,0-.81.26-1.44.79-1.89.53-.44,1.28-.67,2.27-.67.5,0,.96.07,1.37.22.42.15.78.35,1.08.62.3.27.51.58.63.93l-1.51.68c-.11-.27-.31-.48-.62-.63-.3-.15-.64-.22-1.01-.22s-.66.08-.86.24c-.21.16-.31.38-.31.66,0,.16.09.31.28.45.18.14.45.25.8.33l.96.23c.53.13.96.33,1.3.61s.58.58.75.93c.16.34.24.69.24,1.03,0,.49-.14.92-.41,1.28-.28.37-.65.65-1.13.85-.48.2-1.02.3-1.62.3Z"/>
    <path d="M115.55,48.73c-.86,0-1.51-.21-1.96-.64-.45-.43-.67-1.04-.67-1.84v-4.27h-1.35v-1.56h1.35v-2.54h1.8v2.54h2.19v1.56h-2.19v3.93c0,.38.09.67.27.86.18.2.44.29.79.29.11,0,.23-.02.36-.07.13-.04.28-.12.44-.24l.67,1.38c-.28.19-.56.34-.85.45-.28.1-.56.15-.84.15Z"/>
    <path d="M122.44,48.73c-.79,0-1.49-.18-2.1-.54-.61-.36-1.09-.86-1.45-1.5-.35-.64-.53-1.38-.53-2.21s.18-1.57.54-2.21.85-1.14,1.47-1.5c.62-.36,1.33-.54,2.14-.54.73,0,1.38.19,1.97.56.58.37,1.05.91,1.39,1.62.34.7.51,1.54.51,2.52h-6.13c.05.68.31,1.22.76,1.61.45.39.98.58,1.6.58.5,0,.91-.11,1.23-.33.33-.22.58-.51.76-.87l1.61.68c-.23.43-.52.81-.87,1.14-.35.33-.77.57-1.25.75-.48.17-1.03.26-1.65.26ZM120.36,43.52h4.05c-.03-.39-.15-.71-.34-.97-.19-.25-.43-.45-.71-.58-.28-.13-.58-.19-.89-.19s-.61.06-.92.19c-.31.12-.57.32-.79.58-.22.26-.35.58-.39.97Z"/>
    <path d="M128.38,48.54v-8.12h1.71l.08,1.09c.25-.42.57-.74.96-.96.39-.22.83-.32,1.33-.32.65,0,1.2.15,1.66.44s.79.74.99,1.33c.24-.57.57-1.01,1.01-1.32.43-.3.94-.45,1.53-.45.94,0,1.67.3,2.18.9.51.6.76,1.52.75,2.77v4.65h-1.8v-4.16c0-.65-.07-1.15-.21-1.5s-.33-.6-.57-.74-.51-.21-.83-.21c-.56-.01-1,.19-1.31.6-.31.41-.46,1-.46,1.77v4.24h-1.82v-4.16c0-.65-.07-1.15-.2-1.5-.14-.35-.32-.6-.56-.74s-.51-.21-.83-.21c-.56-.01-1,.19-1.31.6-.31.41-.46,1-.46,1.77v4.24h-1.82Z"/>
  </g>
</svg>