<?xml version="1.0" encoding="UTF-8"?>
<svg id="Natura11y_Logo" data-name="Natura11y Logo" xmlns="http://www.w3.org/2000/svg" width="255" height="80" viewBox="0 0 255 80">
  <g id="Nature">
    <polygon points="27.31 16.01 27.36 27.51 7.16 .35 0 .35 0 40.8 7.97 40.8 7.97 25.72 7.85 13.7 28.06 40.8 35.27 40.8 35.27 .35 27.31 .35 27.31 16.01"/>
    <path d="M61.81,15.66c-2.31-2.6-5.83-4.05-9.87-4.05-8.2,0-13.86,6.13-13.86,14.91s5.66,14.91,13.86,14.91c4.04,0,7.5-1.44,9.87-4.1l.52,3.47h6.64V12.25h-6.64l-.52,3.41ZM53.5,34.73c-4.56,0-7.79-3.41-7.79-8.21s3.23-8.21,7.79-8.21,7.85,3.41,7.85,8.21-3.23,8.21-7.85,8.21Z"/>
    <path d="M141.2,11.67c-3.12,0-5.83,1.21-8.03,4.16l-.63-3.58h-6.64v28.55h7.68v-13.93c0-5.2,2.71-8.15,6.93-8.15,1.62,0,3,.4,4.62,1.5l.11-.2c.72-2.2,1.81-4.14,3.22-5.77-1.85-1.72-4.61-2.58-7.25-2.58Z"/>
    <path d="M89.42,34.73c-3.38,0-5.27-2.25-5.27-6.3v-9.88h7.32v-6.3h-7.31v-7.57h-7.62v7.57h-5.14v6.3h5.14v10.75c0,7.57,4.47,12.14,11.68,12.14,2.77,0,5.09-.69,7.01-1.97-1.29-1.51-2.28-3.33-2.92-5.42-.84.43-1.81.69-2.89.69Z"/>
    <path d="M114.82,27.22c0,4.39-2.71,7.46-6.81,7.46-3.69,0-6.06-2.54-6.06-6.94v-15.49h-7.68v15.95c0,8.09,4.68,13.18,11.78,13.18,3.75,0,7.04-1.39,9.3-3.87l.52,3.29h6.64V12.25h-7.68v14.97Z"/>
  </g>
  <g id="a11y">
    <path d="M170.76,15.66c-2.31-2.6-5.83-4.05-9.87-4.05-8.2,0-13.86,6.13-13.86,14.91s5.66,14.91,13.86,14.91c4.04,0,7.51-1.44,9.87-4.1l.52,3.47h6.64V12.25h-6.64l-.52,3.41ZM162.45,34.73c-4.56,0-7.79-3.41-7.79-8.21s3.23-8.21,7.79-8.21,7.85,3.41,7.85,8.21-3.23,8.21-7.85,8.21Z"/>
    <polygon points="246.69 12.25 242.13 23.41 238.83 32.13 235.83 23.41 231.62 12.25 223.36 12.25 234.56 40.46 228.9 53.58 237.16 53.58 255 12.25 246.69 12.25"/>
    <polygon points="195.33 0 180.73 4.68 180.73 11.67 187.37 9.54 187.37 33.87 180.73 33.87 180.73 40.8 202.03 40.8 202.03 33.87 195.33 33.87 195.33 0"/>
    <polygon points="219.44 0 204.84 4.68 204.84 11.67 211.47 9.54 211.47 33.87 204.84 33.87 204.84 40.8 226.14 40.8 226.14 33.87 219.44 33.87 219.44 0"/>
  </g>
  <g id="Tagline">
    <path d="M0,74.67v-17.5h5.49c1.71,0,3.23.37,4.56,1.11,1.32.74,2.36,1.77,3.12,3.09.76,1.32,1.14,2.83,1.14,4.55s-.38,3.21-1.14,4.53c-.76,1.32-1.8,2.35-3.12,3.1-1.32.75-2.84,1.13-4.56,1.13H0ZM2.9,71.97h2.6c.82,0,1.58-.15,2.3-.46.71-.31,1.34-.74,1.87-1.29.53-.55.95-1.19,1.25-1.92.3-.73.45-1.52.45-2.38s-.15-1.64-.45-2.38c-.3-.73-.72-1.37-1.25-1.92-.53-.55-1.16-.98-1.87-1.29-.72-.31-1.48-.46-2.3-.46h-2.6v12.1Z"/>
    <path d="M23.19,74.97c-1.22,0-2.29-.28-3.23-.84-.94-.56-1.68-1.33-2.22-2.31-.54-.98-.81-2.12-.81-3.4s.27-2.42.82-3.4c.55-.98,1.3-1.75,2.26-2.31.96-.56,2.05-.84,3.28-.84,1.11,0,2.12.29,3.02.86.9.57,1.61,1.4,2.13,2.49.52,1.08.79,2.38.79,3.88h-9.41c.08,1.05.47,1.87,1.16,2.47.69.6,1.51.9,2.46.9.77,0,1.4-.17,1.9-.51.5-.34.89-.79,1.17-1.34l2.47,1.05c-.35.67-.8,1.25-1.34,1.75-.54.5-1.18.88-1.92,1.15-.74.27-1.59.4-2.53.4ZM19.99,66.95h6.22c-.05-.6-.23-1.1-.52-1.49-.3-.39-.67-.69-1.1-.89-.43-.2-.89-.3-1.37-.3s-.94.1-1.41.29c-.47.19-.88.49-1.21.89-.33.4-.53.9-.6,1.5Z"/>
    <path d="M36.52,74.97c-.83,0-1.6-.12-2.3-.37-.7-.25-1.3-.6-1.8-1.06-.5-.46-.88-1-1.15-1.61l2.42-1.07c.25.47.62.86,1.11,1.17.49.32,1.04.48,1.63.48.65,0,1.17-.11,1.56-.34.39-.22.59-.54.59-.94s-.15-.68-.45-.89c-.3-.21-.72-.38-1.27-.51l-1.17-.33c-1.18-.3-2.11-.78-2.77-1.44-.67-.66-1-1.41-1-2.26,0-1.25.4-2.22,1.21-2.9.81-.68,1.97-1.02,3.48-1.02.77,0,1.47.11,2.11.34.64.22,1.19.54,1.66.95.47.41.79.89.97,1.44l-2.32,1.05c-.17-.42-.48-.74-.95-.96-.47-.23-.98-.34-1.55-.34s-1.01.12-1.32.36c-.32.24-.47.58-.47,1.01,0,.25.14.48.42.69.28.21.69.38,1.22.51l1.47.35c.82.2,1.48.51,2,.94.52.43.9.9,1.15,1.43s.37,1.05.37,1.59c0,.75-.21,1.41-.64,1.97-.42.57-1,1-1.73,1.31-.73.31-1.56.46-2.5.46Z"/>
    <path d="M45.99,59.8c-.45,0-.84-.16-1.16-.49s-.49-.71-.49-1.16.16-.83.49-1.15c.32-.32.71-.47,1.16-.47s.84.16,1.16.47c.32.32.49.7.49,1.15s-.16.84-.49,1.16-.71.49-1.16.49ZM44.59,74.67v-12.5h2.77v12.5h-2.77Z"/>
    <path d="M56.53,80c-.88,0-1.68-.08-2.38-.23-.71-.15-1.3-.33-1.78-.53-.48-.2-.86-.39-1.12-.57l1.07-2.25c.23.12.55.26.94.44.39.18.85.33,1.39.46.53.13,1.13.2,1.8.2.72,0,1.36-.15,1.92-.44.57-.29,1.01-.74,1.32-1.34.32-.6.47-1.37.47-2.3v-1.25c-.43.7-.99,1.25-1.68,1.64-.69.39-1.48.59-2.36.59-1.13,0-2.12-.26-2.96-.77-.84-.52-1.5-1.24-1.97-2.16-.47-.93-.71-2-.71-3.21,0-1.3.24-2.42.71-3.37.47-.95,1.13-1.69,1.97-2.23.84-.53,1.83-.8,2.96-.8.88,0,1.67.2,2.36.6.69.4,1.25.98,1.68,1.73v-2.03h2.8v11.2c0,1.42-.27,2.62-.8,3.61-.53.99-1.28,1.74-2.25,2.25-.97.51-2.09.76-3.37.76ZM56.88,72.05c.63,0,1.19-.17,1.66-.5.47-.33.84-.79,1.11-1.36.27-.57.4-1.24.4-1.99s-.13-1.44-.4-2.01c-.27-.57-.64-1.02-1.12-1.35-.48-.32-1.04-.49-1.67-.49-.67,0-1.25.16-1.76.49-.51.33-.91.78-1.2,1.35-.29.58-.44,1.25-.44,2.01s.15,1.41.44,1.99c.29.58.69,1.03,1.21,1.36.52.33,1.11.5,1.77.5Z"/>
    <path d="M66.79,74.67v-12.5h2.62l.12,1.78c.4-.67.92-1.18,1.56-1.54.64-.36,1.38-.54,2.21-.54,1,0,1.85.2,2.56.6.71.4,1.25,1.02,1.62,1.86s.56,1.94.56,3.29v7.05h-2.8v-6.4c0-1-.11-1.77-.34-2.31s-.54-.92-.95-1.14-.89-.33-1.43-.33c-.93-.02-1.66.29-2.17.92-.52.63-.77,1.54-.77,2.73v6.52h-2.8Z"/>
    <path d="M89.2,74.67v-17.5h10.76v2.65h-7.86v4.65h6.94v2.6h-6.94v4.95h7.94v2.65h-10.83Z"/>
    <path d="M109.35,74.97c-1.28,0-2.41-.28-3.39-.84-.98-.56-1.75-1.33-2.31-2.31-.56-.98-.84-2.12-.84-3.4s.28-2.42.84-3.4c.56-.98,1.32-1.75,2.3-2.31.97-.56,2.09-.84,3.36-.84s2.35.3,3.35.89c1,.59,1.74,1.44,2.22,2.54l-2.6,1c-.27-.55-.67-.99-1.22-1.33-.55-.33-1.17-.5-1.87-.5s-1.29.17-1.82.51c-.53.34-.95.81-1.25,1.4-.3.59-.45,1.27-.45,2.04s.15,1.45.46,2.04c.31.59.73,1.06,1.27,1.4.54.34,1.15.51,1.83.51s1.32-.18,1.87-.54c.55-.36.96-.85,1.22-1.46l2.6,1c-.48,1.13-1.22,2.02-2.21,2.65-.99.63-2.11.95-3.36.95Z"/>
    <path d="M123.63,74.97c-1.25,0-2.36-.28-3.33-.84-.97-.56-1.73-1.33-2.28-2.31-.55-.98-.82-2.12-.82-3.4s.27-2.42.81-3.4c.54-.98,1.29-1.75,2.26-2.31.97-.56,2.07-.84,3.32-.84s2.35.28,3.32.84c.96.56,1.72,1.33,2.26,2.31.54.98.81,2.12.81,3.4s-.27,2.42-.8,3.4c-.53.98-1.28,1.75-2.25,2.31-.96.56-2.06.84-3.29.84ZM123.63,72.4c.68,0,1.29-.17,1.82-.51.53-.34.95-.81,1.25-1.4.3-.59.45-1.28.45-2.06s-.15-1.47-.46-2.06c-.31-.59-.73-1.06-1.26-1.4-.53-.34-1.15-.51-1.85-.51s-1.32.17-1.85.5c-.53.33-.95.8-1.25,1.4-.3.6-.45,1.29-.45,2.07s.15,1.47.46,2.06c.31.59.73,1.06,1.27,1.4.54.34,1.16.51,1.86.51Z"/>
    <path d="M137.55,74.97c-.83,0-1.6-.12-2.3-.37-.7-.25-1.3-.6-1.8-1.06-.5-.46-.88-1-1.15-1.61l2.42-1.07c.25.47.62.86,1.11,1.17.49.32,1.04.48,1.64.48.65,0,1.17-.11,1.56-.34.39-.22.59-.54.59-.94s-.15-.68-.45-.89c-.3-.21-.72-.38-1.27-.51l-1.17-.33c-1.18-.3-2.1-.78-2.77-1.44-.67-.66-1-1.41-1-2.26,0-1.25.4-2.22,1.21-2.9.81-.68,1.97-1.02,3.48-1.02.77,0,1.47.11,2.11.34.64.22,1.19.54,1.66.95.47.41.79.89.97,1.44l-2.32,1.05c-.17-.42-.48-.74-.95-.96-.47-.23-.98-.34-1.55-.34s-1.01.12-1.32.36c-.32.24-.47.58-.47,1.01,0,.25.14.48.42.69.28.21.69.38,1.22.51l1.47.35c.81.2,1.48.51,2,.94.52.43.9.9,1.15,1.43.25.53.38,1.05.38,1.59,0,.75-.21,1.41-.64,1.97-.42.57-1,1-1.74,1.31-.73.31-1.56.46-2.5.46Z"/>
    <path d="M147.5,79.97c-.4,0-.84-.07-1.34-.22s-.96-.34-1.41-.58l1.05-2.27c.32.15.61.27.87.36s.48.14.65.14c.4,0,.74-.1,1.01-.31.27-.21.5-.51.66-.91l.67-1.6-5.54-12.4h3.05l3.79,9.2,3.72-9.2h3.05l-5.79,13.83c-.35.8-.7,1.5-1.06,2.1-.36.6-.8,1.06-1.34,1.39-.53.33-1.22.49-2.05.49Z"/>
    <path d="M164.25,74.97c-.83,0-1.6-.12-2.3-.37s-1.3-.6-1.8-1.06c-.5-.46-.88-1-1.15-1.61l2.42-1.07c.25.47.62.86,1.11,1.17.49.32,1.04.48,1.64.48.65,0,1.17-.11,1.56-.34.39-.22.59-.54.59-.94s-.15-.68-.45-.89c-.3-.21-.72-.38-1.27-.51l-1.17-.33c-1.18-.3-2.1-.78-2.77-1.44-.67-.66-1-1.41-1-2.26,0-1.25.4-2.22,1.21-2.9.81-.68,1.97-1.02,3.48-1.02.77,0,1.47.11,2.11.34.64.22,1.19.54,1.66.95.47.41.79.89.97,1.44l-2.32,1.05c-.17-.42-.48-.74-.95-.96-.47-.23-.98-.34-1.55-.34s-1.01.12-1.32.36c-.32.24-.47.58-.47,1.01,0,.25.14.48.42.69.28.21.69.38,1.22.51l1.47.35c.81.2,1.48.51,2,.94s.9.9,1.15,1.43c.25.53.38,1.05.38,1.59,0,.75-.21,1.41-.64,1.97-.42.57-1,1-1.74,1.31-.73.31-1.56.46-2.5.46Z"/>
    <path d="M177.5,74.97c-1.31,0-2.32-.33-3.01-.99-.69-.66-1.04-1.6-1.04-2.84v-6.58h-2.07v-2.4h2.07v-3.9h2.77v3.9h3.37v2.4h-3.37v6.05c0,.58.14,1.02.41,1.32.27.3.68.45,1.21.45.17,0,.35-.03.55-.1.2-.07.42-.19.67-.37l1.02,2.13c-.43.3-.87.53-1.3.69-.43.16-.87.24-1.3.24Z"/>
    <path d="M188.08,74.97c-1.22,0-2.29-.28-3.23-.84-.94-.56-1.68-1.33-2.22-2.31-.54-.98-.81-2.12-.81-3.4s.27-2.42.82-3.4,1.3-1.75,2.26-2.31c.96-.56,2.05-.84,3.28-.84,1.11,0,2.12.29,3.02.86.9.57,1.61,1.4,2.13,2.49.53,1.08.79,2.38.79,3.88h-9.41c.08,1.05.47,1.87,1.16,2.47.69.6,1.51.9,2.46.9.77,0,1.4-.17,1.9-.51.5-.34.89-.79,1.17-1.34l2.47,1.05c-.35.67-.8,1.25-1.34,1.75-.54.5-1.18.88-1.92,1.15-.74.27-1.58.4-2.53.4ZM184.88,66.95h6.22c-.05-.6-.23-1.1-.53-1.49-.3-.39-.66-.69-1.1-.89-.43-.2-.89-.3-1.37-.3s-.94.1-1.41.29c-.47.19-.88.49-1.21.89-.33.4-.53.9-.6,1.5Z"/>
    <path d="M197.22,74.67v-12.5h2.62l.12,1.68c.38-.65.87-1.14,1.47-1.48.6-.33,1.28-.5,2.05-.5,1,0,1.85.22,2.55.67.7.45,1.21,1.13,1.52,2.05.37-.88.88-1.56,1.55-2.03.67-.47,1.45-.7,2.35-.7,1.45,0,2.56.46,3.35,1.39.78.92,1.17,2.35,1.15,4.26v7.15h-2.77v-6.4c0-1-.11-1.77-.33-2.31-.22-.54-.51-.92-.87-1.14-.37-.22-.79-.33-1.27-.33-.87-.02-1.53.29-2.01.92-.47.63-.71,1.54-.71,2.73v6.52h-2.8v-6.4c0-1-.11-1.77-.31-2.31-.21-.54-.5-.92-.86-1.14-.37-.22-.79-.33-1.27-.33-.87-.02-1.53.29-2.01.92-.48.63-.71,1.54-.71,2.73v6.52h-2.79Z"/>
  </g>
</svg>