<?xml version="1.0" encoding="UTF-8"?>
<svg id="Natura11y_Logo" data-name="Natura11y Logo" xmlns="http://www.w3.org/2000/svg" width="166" height="52" viewBox="0 0 166 52">
  <g id="Nature">
    <polygon points="17.77 10.41 17.81 17.88 4.66 .23 0 .23 0 26.52 5.18 26.52 5.18 16.72 5.11 8.9 18.26 26.52 22.95 26.52 22.95 .23 17.77 .23 17.77 10.41"/>
    <path d="M40.22,10.18c-1.5-1.69-3.79-2.63-6.42-2.63-5.33,0-9.02,3.98-9.02,9.69s3.68,9.69,9.02,9.69c2.63,0,4.88-.94,6.42-2.67l.34,2.25h4.32V7.96h-4.32l-.34,2.22ZM34.81,22.58c-2.97,0-5.07-2.22-5.07-5.33s2.1-5.33,5.07-5.33,5.11,2.22,5.11,5.33-2.1,5.33-5.11,5.33Z"/>
    <path d="M91.88,7.59c-2.03,0-3.79.79-5.22,2.7l-.41-2.33h-4.32v18.56h5v-9.05c0-3.38,1.77-5.3,4.51-5.3,1.05,0,1.95.26,3.01.98l.07-.13c.47-1.43,1.18-2.69,2.09-3.75-1.2-1.12-3-1.68-4.72-1.68Z"/>
    <path d="M58.18,22.58c-2.2,0-3.43-1.47-3.43-4.1v-6.42h4.76v-4.09h-4.76V3.04h-4.96v4.92h-3.34v4.09h3.34v6.99c0,4.92,2.91,7.89,7.6,7.89,1.8,0,3.32-.45,4.56-1.28-.84-.98-1.48-2.17-1.9-3.53-.55.28-1.17.45-1.88.45Z"/>
    <path d="M74.72,17.69c0,2.86-1.77,4.85-4.43,4.85-2.4,0-3.95-1.65-3.95-4.51V7.96h-5v10.37c0,5.26,3.04,8.57,7.66,8.57,2.44,0,4.58-.9,6.05-2.52l.34,2.14h4.32V7.96h-5v9.73Z"/>
  </g>
  <g id="a11y">
    <path d="M111.12,10.18c-1.5-1.69-3.79-2.63-6.42-2.63-5.33,0-9.02,3.98-9.02,9.69s3.68,9.69,9.02,9.69c2.63,0,4.88-.94,6.42-2.67l.34,2.25h4.32V7.96h-4.32l-.34,2.22ZM105.71,22.58c-2.97,0-5.07-2.22-5.07-5.33s2.1-5.33,5.07-5.33,5.11,2.22,5.11,5.33-2.1,5.33-5.11,5.33Z"/>
    <polygon points="160.52 7.96 157.56 15.21 155.41 20.89 153.46 15.21 150.72 7.96 145.35 7.96 152.63 26.3 148.95 34.82 154.32 34.82 165.93 7.96 160.52 7.96"/>
    <polygon points="127.11 0 117.6 3.04 117.6 7.59 121.92 6.2 121.92 22.01 117.6 22.01 117.6 26.52 131.46 26.52 131.46 22.01 127.11 22.01 127.11 0"/>
    <polygon points="142.79 0 133.29 3.04 133.29 7.59 137.61 6.2 137.61 22.01 133.29 22.01 133.29 26.52 147.15 26.52 147.15 22.01 142.79 22.01 142.79 0"/>
  </g>
  <g id="Tagline">
    <path d="M0,48.23v-12.38h3.96c1.26,0,2.38.27,3.35.8s1.73,1.26,2.28,2.18.82,2,.82,3.21-.27,2.27-.82,3.2c-.55.93-1.31,1.66-2.28,2.19s-2.09.8-3.35.8H0ZM2.42,45.97h1.54c.57,0,1.09-.1,1.57-.3.48-.2.9-.48,1.26-.83.36-.35.64-.77.84-1.25.2-.48.3-.99.3-1.55s-.1-1.07-.3-1.55c-.2-.48-.48-.89-.84-1.25-.36-.35-.78-.63-1.26-.83-.48-.2-1.01-.3-1.57-.3h-1.54v7.85Z"/>
    <path d="M16.04,48.44c-.87,0-1.64-.2-2.32-.59-.67-.39-1.2-.94-1.58-1.64-.38-.7-.57-1.5-.57-2.41s.2-1.71.59-2.41c.39-.7.94-1.24,1.63-1.64s1.48-.59,2.38-.59c.78,0,1.49.2,2.15.61.65.41,1.18,1,1.57,1.79s.59,1.74.59,2.86h-6.47c.06.59.31,1.06.76,1.41.45.35.96.52,1.52.52.48,0,.88-.1,1.19-.31.31-.21.54-.47.71-.8l2.09.81c-.25.5-.57.92-.96,1.28-.4.36-.86.63-1.41.82s-1.16.28-1.86.28ZM14.13,42.7h3.82c-.04-.37-.15-.66-.35-.88-.2-.22-.44-.39-.71-.5-.27-.11-.54-.16-.8-.16s-.52.05-.8.15c-.29.1-.54.26-.76.49-.22.22-.35.53-.4.9Z"/>
    <path d="M25.15,48.44c-.57,0-1.1-.09-1.59-.26-.5-.17-.93-.42-1.31-.74s-.67-.72-.88-1.19l2-.92c.18.28.42.53.72.73s.66.31,1.06.31.69-.06.9-.17c.21-.11.32-.27.32-.49s-.09-.37-.26-.47c-.17-.1-.4-.19-.7-.26l-.81-.21c-.85-.22-1.52-.58-2.01-1.07s-.73-1.05-.73-1.69c0-.91.29-1.61.88-2.1.58-.5,1.41-.74,2.48-.74.55,0,1.07.08,1.55.25.48.17.89.4,1.23.69.34.3.58.64.71,1.03l-1.93.88c-.08-.24-.28-.43-.6-.57-.32-.15-.64-.22-.96-.22s-.56.07-.73.2c-.17.14-.26.32-.26.56,0,.15.08.28.25.38.17.1.4.19.71.26l1.15.28c.58.14,1.04.37,1.39.68.35.31.6.66.76,1.04s.24.76.24,1.12c0,.53-.16,1-.47,1.41-.31.41-.74.72-1.27.95-.54.22-1.15.34-1.83.34Z"/>
    <path d="M31.4,37.96c-.35,0-.67-.13-.94-.4-.27-.27-.41-.58-.41-.95s.14-.68.41-.95c.27-.27.58-.4.94-.4s.68.13.95.4c.27.27.4.58.4.95s-.13.68-.4.95c-.27.27-.58.4-.95.4ZM30.23,48.23v-8.84h2.33v8.84h-2.33Z"/>
    <path d="M38.44,52c-.67,0-1.27-.05-1.79-.14-.52-.09-.95-.22-1.31-.37-.35-.15-.64-.31-.87-.46l.92-1.87c.17.09.38.2.65.33.27.12.6.23.97.32s.81.13,1.31.13.89-.09,1.25-.27c.36-.18.64-.47.85-.85s.31-.87.31-1.46v-.85c-.29.46-.68.82-1.15,1.09-.47.27-1.01.4-1.61.4-.81,0-1.52-.18-2.11-.53-.6-.35-1.06-.85-1.39-1.49-.33-.64-.5-1.39-.5-2.26,0-.92.17-1.72.5-2.4.33-.68.79-1.2,1.39-1.57.6-.37,1.3-.56,2.11-.56.6,0,1.14.14,1.61.42.47.28.86.67,1.15,1.18v-1.38h2.34v7.89c0,.99-.19,1.84-.57,2.56-.38.71-.91,1.25-1.6,1.62-.69.37-1.51.55-2.47.55ZM38.65,46.02c.4,0,.75-.1,1.05-.31.3-.21.53-.49.7-.85.16-.36.25-.77.25-1.23s-.09-.88-.26-1.24c-.17-.35-.41-.63-.71-.83-.3-.2-.65-.3-1.05-.3s-.78.1-1.1.3c-.32.2-.57.48-.74.83-.18.35-.27.77-.28,1.24.01.46.11.87.28,1.23s.43.64.75.85c.32.21.69.31,1.11.31Z"/>
    <path d="M45.02,48.23v-8.84h2.19l.11,1.2c.28-.46.65-.81,1.09-1.05s.95-.36,1.51-.36c.7,0,1.29.14,1.79.42.5.28.87.72,1.13,1.32.26.6.38,1.37.37,2.31v5.01h-2.33v-4.53c0-.6-.07-1.07-.2-1.4s-.33-.57-.57-.72-.54-.22-.87-.22c-.6-.01-1.06.17-1.39.55s-.49.94-.49,1.68v4.63h-2.33Z"/>
    <path d="M59.61,48.23v-12.38h7.84v2.21h-5.41v2.81h4.67v2.16h-4.67v2.99h5.48v2.21h-7.91Z"/>
    <path d="M73.65,48.44c-.92,0-1.74-.2-2.46-.59-.72-.39-1.28-.94-1.68-1.64-.4-.7-.6-1.5-.6-2.4s.2-1.71.6-2.41.96-1.24,1.66-1.64c.71-.4,1.52-.59,2.44-.59s1.69.22,2.42.65c.73.44,1.26,1.07,1.59,1.89l-2.19.78c-.17-.34-.42-.62-.77-.82-.35-.21-.73-.31-1.16-.31s-.82.1-1.15.31c-.33.21-.59.49-.78.86-.19.37-.28.79-.28,1.27s.09.91.28,1.26c.19.36.45.65.8.86.34.21.73.32,1.17.32s.81-.11,1.16-.34c.35-.22.6-.52.77-.88l2.21.78c-.34.84-.88,1.49-1.6,1.95-.72.46-1.54.69-2.43.69Z"/>
    <path d="M83.2,48.44c-.9,0-1.69-.2-2.4-.59-.7-.39-1.25-.94-1.64-1.64-.4-.7-.59-1.5-.59-2.41s.19-1.71.58-2.41.93-1.24,1.63-1.64,1.49-.59,2.39-.59,1.71.2,2.41.59c.7.4,1.24.94,1.63,1.64.39.7.58,1.5.58,2.41s-.2,1.71-.58,2.41c-.39.7-.93,1.24-1.62,1.64-.69.4-1.48.59-2.38.59ZM83.2,46.29c.44,0,.82-.11,1.15-.32.33-.21.59-.5.77-.88.18-.37.27-.8.27-1.28s-.1-.91-.28-1.28c-.19-.37-.45-.66-.79-.88-.34-.21-.72-.32-1.16-.32s-.8.11-1.14.32c-.34.21-.6.5-.79.88-.19.37-.28.8-.28,1.28s.09.91.28,1.28c.19.37.45.66.8.88.34.21.73.32,1.17.32Z"/>
    <path d="M92.63,48.44c-.57,0-1.1-.09-1.59-.26s-.93-.42-1.31-.74c-.38-.32-.67-.72-.88-1.19l2-.92c.18.28.42.53.73.73.31.21.66.31,1.06.31s.69-.06.9-.17c.21-.11.32-.27.32-.49s-.09-.37-.26-.47c-.17-.1-.4-.19-.7-.26l-.81-.21c-.85-.22-1.52-.58-2.01-1.07-.49-.49-.73-1.05-.73-1.69,0-.91.29-1.61.88-2.1.58-.5,1.41-.74,2.49-.74.55,0,1.07.08,1.55.25.48.17.89.4,1.23.69.34.3.58.64.71,1.03l-1.93.88c-.08-.24-.28-.43-.6-.57-.32-.15-.64-.22-.96-.22s-.56.07-.73.2c-.17.14-.26.32-.26.56,0,.15.08.28.25.38.17.1.4.19.71.26l1.15.28c.58.14,1.04.37,1.39.68.35.31.6.66.76,1.04.16.38.24.76.24,1.12,0,.53-.16,1-.47,1.41-.31.41-.74.72-1.27.95-.54.22-1.15.34-1.83.34Z"/>
    <path d="M99.34,51.98c-.32,0-.67-.06-1.05-.19-.38-.12-.72-.27-1.02-.43l.87-1.89c.2.11.39.19.56.26s.32.1.45.1c.25,0,.47-.07.65-.2s.34-.33.46-.59l.37-.9-4-8.74h2.56l2.51,6.1,2.41-6.1h2.57l-4.02,9.6c-.25.59-.51,1.11-.78,1.57-.27.45-.6.8-1,1.05-.4.25-.91.37-1.55.37Z"/>
    <path d="M110.64,48.44c-.57,0-1.1-.09-1.59-.26s-.93-.42-1.31-.74c-.38-.32-.67-.72-.88-1.19l2-.92c.18.28.42.53.73.73.31.21.66.31,1.06.31s.69-.06.9-.17c.21-.11.32-.27.32-.49s-.09-.37-.26-.47c-.17-.1-.4-.19-.7-.26l-.81-.21c-.85-.22-1.52-.58-2.01-1.07-.49-.49-.73-1.05-.73-1.69,0-.91.29-1.61.88-2.1.58-.5,1.41-.74,2.49-.74.55,0,1.07.08,1.55.25.48.17.89.4,1.23.69.34.3.58.64.71,1.03l-1.93.88c-.08-.24-.28-.43-.6-.57-.32-.15-.64-.22-.96-.22s-.56.07-.73.2c-.17.14-.26.32-.26.56,0,.15.08.28.25.38.17.1.4.19.71.26l1.15.28c.58.14,1.04.37,1.39.68.35.31.6.66.76,1.04.16.38.24.76.24,1.12,0,.53-.16,1-.47,1.41-.31.41-.74.72-1.27.95-.54.22-1.15.34-1.83.34Z"/>
    <path d="M119.22,48.44c-.98,0-1.72-.24-2.22-.72-.5-.48-.75-1.17-.75-2.07v-4.28h-1.43v-1.98h1.43v-2.76h2.34v2.76h2.21v1.98h-2.21v3.77c0,.38.08.66.25.86.16.19.41.29.72.29.12,0,.25-.03.39-.08s.29-.13.44-.24l.81,1.75c-.28.21-.6.39-.95.52-.35.14-.69.2-1.03.2Z"/>
    <path d="M126.38,48.44c-.87,0-1.65-.2-2.32-.59-.67-.39-1.2-.94-1.58-1.64-.38-.7-.57-1.5-.57-2.41s.2-1.71.59-2.41.94-1.24,1.63-1.64,1.48-.59,2.38-.59c.78,0,1.5.2,2.15.61.65.41,1.18,1,1.57,1.79s.59,1.74.59,2.86h-6.47c.06.59.31,1.06.76,1.41.45.35.96.52,1.52.52.48,0,.88-.1,1.19-.31.31-.21.54-.47.71-.8l2.09.81c-.25.5-.57.92-.96,1.28-.4.36-.86.63-1.41.82-.54.19-1.16.28-1.86.28ZM124.47,42.7h3.82c-.04-.37-.15-.66-.35-.88-.2-.22-.44-.39-.71-.5-.27-.11-.54-.16-.8-.16s-.52.05-.81.15c-.29.1-.54.26-.76.49-.22.22-.35.53-.4.9Z"/>
    <path d="M132.18,48.23v-8.84h2.19l.11,1.15c.27-.45.62-.79,1.04-1.02.43-.23.9-.34,1.42-.34.72,0,1.32.15,1.81.46.49.31.85.78,1.07,1.41.26-.6.63-1.06,1.1-1.39.47-.32,1.02-.49,1.64-.49,1.04,0,1.83.33,2.37.98.54.65.81,1.66.81,3.02v5.06h-2.33v-4.53c0-.6-.06-1.07-.19-1.4-.13-.33-.31-.57-.53-.72-.22-.15-.49-.22-.8-.22-.57-.01-1,.17-1.31.55s-.46.94-.46,1.68v4.63h-2.33v-4.53c0-.6-.06-1.07-.19-1.4-.12-.33-.3-.57-.53-.72s-.5-.22-.8-.22c-.57-.01-1,.17-1.3.55-.3.38-.45.94-.45,1.68v4.63h-2.34Z"/>
  </g>
</svg>