<svg width="166" height="48" viewBox="0 0 166 48" fill="none" xmlns="http://www.w3.org/2000/svg">

<g>
    <path d="M17.7651 10.4026L17.8093 17.8756L4.65409 0.2211H1.52588e-05V26.5205H5.18472V16.7149L5.10734 8.89913L18.2515 26.5205H22.9498V0.2211H17.7651V10.4026Z" fill="#004227"/>
    <path d="M40.2174 10.1815C38.714 8.4901 36.4256 7.55045 33.7946 7.55045C28.4551 7.55045 24.7738 11.5302 24.7738 17.2455C24.7738 22.9609 28.4551 26.9406 33.7946 26.9406C36.4256 26.9406 38.6808 26.0009 40.2174 24.2764L40.5601 26.5316H44.8826V7.95947H40.5601L40.2174 10.1704V10.1815ZM34.8116 22.5739C31.8489 22.5739 29.7375 20.3519 29.7375 17.2345C29.7375 14.117 31.8379 11.895 34.8116 11.895C37.7854 11.895 39.9189 14.117 39.9189 17.2345C39.9189 20.3519 37.8185 22.5739 34.8116 22.5739Z" fill="#004227"/>
    <path d="M91.8766 7.58362C89.8425 7.58362 88.0848 8.36851 86.6587 10.292L86.2497 7.95948H81.9272V26.5205H86.924V17.4666C86.924 14.0838 88.6928 12.1714 91.4344 12.1714C92.4846 12.1714 93.3911 12.4367 94.4413 13.1442L94.5187 13.0115C94.983 11.5855 95.7015 10.3142 96.608 9.26395C95.4031 8.14741 93.6122 7.58362 91.8876 7.58362H91.8766Z" fill="#004227"/>
    <path d="M58.1815 22.5739C55.9816 22.5739 54.7545 21.1036 54.7545 18.4837V12.0608H59.5191V7.97053H54.7656V2.70844L49.8019 3.23907V7.97053H46.4634V12.0608H49.8019V19.0474C49.8019 23.9668 52.7094 26.9406 57.3966 26.9406C59.1985 26.9406 60.713 26.4873 61.9622 25.6582C61.1221 24.6743 60.4809 23.4915 60.0608 22.1317C59.5081 22.4192 58.889 22.585 58.1815 22.585V22.5739Z" fill="#004227"/>
    <path d="M74.7195 17.6877C74.7195 20.5399 72.9507 22.5297 70.2865 22.5297C67.8876 22.5297 66.34 20.8715 66.34 18.0194V7.95947H61.3432V18.3289C61.3432 23.591 64.3833 26.8964 69.0042 26.8964C71.4473 26.8964 73.5919 25.9899 75.0512 24.3759L75.3938 26.5205H79.7163V7.95947H74.7195V17.6877Z" fill="#004227"/>
    <path d="M111.112 10.1815C109.609 8.4901 107.32 7.55045 104.689 7.55045C99.3496 7.55045 95.6684 11.5302 95.6684 17.2455C95.6684 22.9609 99.3496 26.9406 104.689 26.9406C107.32 26.9406 109.575 26.0009 111.112 24.2764L111.455 26.5316H115.777V7.95947H111.455L111.112 10.1704V10.1815ZM105.706 22.5739C102.743 22.5739 100.632 20.3519 100.632 17.2345C100.632 14.117 102.732 11.895 105.706 11.895C108.68 11.895 110.813 14.117 110.813 17.2345C110.813 20.3519 108.713 22.5739 105.706 22.5739Z" fill="#038200"/>
    <path d="M160.516 7.95947L157.553 15.2114L155.409 20.8825L153.452 15.2114L150.71 7.95947H145.338L152.623 26.2994L148.942 34.8227H154.314L165.922 7.95947H160.516Z" fill="#038200"/>
    <path d="M127.097 0H126.533L117.601 3.04007V7.5836L121.913 6.26808V22.0101H117.601V26.5205H131.464V22.0101H127.097V0Z" fill="#038200"/>
    <path d="M142.784 0H142.22L133.288 3.04007V7.5836L137.599 6.26808V22.0101H133.288V26.5205H147.151V22.0101H142.784V0Z" fill="#038200"/>
    <path d="M1.52588e-05 44.2303V31.8489H3.95764C5.21789 31.8489 6.33442 32.1142 7.30725 32.6449C8.28007 33.1755 9.04285 33.9051 9.58454 34.8337C10.1262 35.7623 10.4026 36.8346 10.4026 38.0396C10.4026 39.2446 10.1262 40.3059 9.58454 41.2455C9.0318 42.1741 8.28007 42.9037 7.30725 43.4344C6.33442 43.965 5.21789 44.2303 3.95764 44.2303H1.52588e-05ZM2.42102 41.9641H3.95764C4.52143 41.9641 5.05207 41.8646 5.52742 41.6656C6.01383 41.4666 6.43392 41.1902 6.78767 40.8365C7.15248 40.4827 7.42885 40.0627 7.62784 39.5873C7.82682 39.1119 7.92632 38.5924 7.92632 38.0396C7.92632 37.4869 7.82682 36.9673 7.62784 36.4919C7.42885 36.0166 7.15248 35.5965 6.78767 35.2428C6.42286 34.889 6.00278 34.6126 5.52742 34.4136C5.04101 34.2147 4.52143 34.1152 3.95764 34.1152H2.42102V41.9641Z" fill="#130D33"/>
    <path d="M16.0406 44.4404C15.1672 44.4404 14.3934 44.2414 13.719 43.8434C13.0447 43.4454 12.5141 42.9037 12.1382 42.2073C11.7513 41.5108 11.5634 40.7149 11.5634 39.7973C11.5634 38.8798 11.7623 38.0838 12.1603 37.3874C12.5583 36.6909 13.1 36.1492 13.7854 35.7513C14.4708 35.3533 15.2667 35.1543 16.1622 35.1543C16.936 35.1543 17.6546 35.3533 18.3068 35.7623C18.959 36.1714 19.4897 36.7683 19.8766 37.5532C20.2635 38.3381 20.4735 39.2888 20.4735 40.4053H13.9954C14.0507 40.9913 14.3049 41.4666 14.7582 41.8093C15.2114 42.152 15.7089 42.3289 16.2838 42.3289C16.7702 42.3289 17.1571 42.2294 17.4666 42.0194C17.7762 41.8093 18.0083 41.544 18.1741 41.2123L20.2635 42.0304C20.0203 42.5279 19.6997 42.948 19.3017 43.3128C18.9037 43.6776 18.4394 43.9429 17.8978 44.1308C17.3561 44.3188 16.737 44.4182 16.0406 44.4182V44.4404ZM14.1281 38.6919H17.953C17.9199 38.327 17.7983 38.0286 17.5993 37.8075C17.4003 37.5864 17.1571 37.4205 16.8918 37.31C16.6154 37.1995 16.3501 37.1552 16.0958 37.1552C15.8416 37.1552 15.5763 37.2105 15.2888 37.31C15.0014 37.4095 14.7471 37.5753 14.526 37.7964C14.3049 38.0175 14.1723 38.327 14.1281 38.7029V38.6919Z" fill="#130D33"/>
    <path d="M25.1497 44.4404C24.5859 44.4404 24.0553 44.3519 23.5578 44.1861C23.0604 44.0203 22.6292 43.766 22.2534 43.4454C21.8775 43.1248 21.579 42.7269 21.369 42.2515L23.3699 41.334C23.5468 41.6214 23.79 41.8646 24.0995 42.0636C24.409 42.2626 24.7628 42.3731 25.1608 42.3731C25.5587 42.3731 25.8462 42.3178 26.0673 42.2073C26.2773 42.0967 26.3879 41.9309 26.3879 41.7209C26.3879 41.5108 26.2994 41.3561 26.1336 41.2566C25.9678 41.1571 25.7246 41.0686 25.4371 41.0023L24.6191 40.7923C23.7679 40.5712 23.1046 40.2174 22.6071 39.72C22.1096 39.2225 21.8775 38.6698 21.8775 38.0286C21.8775 37.1221 22.1649 36.4146 22.7508 35.9282C23.3367 35.4307 24.1658 35.1875 25.2382 35.1875C25.7909 35.1875 26.3105 35.2649 26.7858 35.4307C27.2612 35.5965 27.6702 35.8287 28.0129 36.1161C28.3556 36.4146 28.5878 36.7573 28.7204 37.1442L26.7969 38.0286C26.7195 37.7964 26.5095 37.5974 26.1999 37.4537C25.8793 37.31 25.5587 37.2326 25.2492 37.2326C24.9397 37.2326 24.6854 37.299 24.5196 37.4316C24.3538 37.5643 24.2653 37.7522 24.2653 37.9844C24.2653 38.1391 24.3427 38.2607 24.5085 38.3602C24.6744 38.4597 24.9065 38.5481 25.216 38.6145L26.3657 38.9019C26.9406 39.0456 27.4049 39.2667 27.7587 39.5873C28.1014 39.8968 28.3556 40.2506 28.5214 40.6265C28.6873 41.0023 28.7646 41.3892 28.7646 41.754C28.7646 42.2847 28.6099 42.749 28.3003 43.158C27.9908 43.567 27.5597 43.8766 27.029 44.1087C26.4874 44.3298 25.8793 44.4404 25.1939 44.4404H25.1497Z" fill="#130D33"/>
    <path d="M31.3957 33.9493C31.0419 33.9493 30.7324 33.8167 30.456 33.5514C30.1796 33.2861 30.047 32.9655 30.047 32.6007C30.047 32.2358 30.1796 31.9153 30.456 31.6499C30.7324 31.3846 31.0419 31.252 31.3957 31.252C31.7494 31.252 32.0811 31.3846 32.3464 31.6499C32.6117 31.9153 32.7444 32.2358 32.7444 32.6007C32.7444 32.9655 32.6117 33.2861 32.3464 33.5514C32.0811 33.8167 31.7605 33.9493 31.3957 33.9493ZM30.2239 44.2303V35.3865H32.5564V44.2303H30.2239Z" fill="#130D33"/>
    <path d="M38.4376 48C37.7633 48 37.1663 47.9558 36.6467 47.8563C36.1271 47.7568 35.696 47.6352 35.3422 47.4804C34.9885 47.3257 34.7011 47.1709 34.48 47.0161L35.3975 45.1368C35.5633 45.2363 35.7844 45.3358 36.0498 45.4685C36.3261 45.5901 36.6467 45.7006 37.0226 45.789C37.3984 45.8775 37.8406 45.9217 38.327 45.9217C38.8135 45.9217 39.2114 45.8333 39.5762 45.6453C39.941 45.4574 40.2174 45.181 40.4275 44.7941C40.6375 44.4072 40.737 43.9208 40.737 43.3349V42.4837C40.4385 42.948 40.0627 43.3017 39.5873 43.567C39.1119 43.8323 38.5813 43.965 37.9733 43.965C37.1552 43.965 36.4588 43.7881 35.8618 43.4344C35.2649 43.0806 34.8006 42.5832 34.4689 41.953C34.1373 41.3119 33.9715 40.5601 33.9715 39.6868C33.9715 38.7692 34.1373 37.9733 34.4689 37.2879C34.8006 36.6136 35.2649 36.0829 35.8618 35.7181C36.4588 35.3423 37.1663 35.1654 37.9733 35.1654C38.5703 35.1654 39.1119 35.3091 39.5873 35.5855C40.0627 35.8618 40.4385 36.2598 40.737 36.7573V35.3754H43.0696V43.2686C43.0696 44.2635 42.8816 45.1147 42.5058 45.8222C42.1299 46.5408 41.5993 47.0714 40.9028 47.4362C40.2174 47.801 39.3883 47.989 38.4376 47.989V48ZM38.6476 42.0194C39.0456 42.0194 39.3994 41.9199 39.6978 41.7098C39.9963 41.4998 40.2285 41.2234 40.3943 40.8586C40.5601 40.4938 40.6375 40.0848 40.6375 39.6315C40.6375 39.1783 40.5491 38.7471 40.3832 38.3934C40.2174 38.0396 39.9742 37.7633 39.6757 37.5643C39.3773 37.3653 39.0235 37.2658 38.6255 37.2658C38.2276 37.2658 37.8517 37.3653 37.5311 37.5643C37.2105 37.7633 36.9673 38.0396 36.7904 38.3934C36.6136 38.7471 36.5141 39.1562 36.503 39.6315C36.5141 40.0958 36.6136 40.5048 36.7904 40.8586C36.9673 41.2124 37.2216 41.4998 37.5422 41.7098C37.8627 41.9199 38.2386 42.0194 38.6476 42.0194Z" fill="#130D33"/>
    <path d="M45.0152 44.2303V35.3865H47.2041L47.3146 36.5915C47.602 36.1272 47.9558 35.7845 48.398 35.5412C48.8402 35.298 49.3487 35.1764 49.9125 35.1764C50.6089 35.1764 51.2059 35.3202 51.7034 35.5965C52.2008 35.8839 52.5767 36.3151 52.831 36.912C53.0852 37.509 53.2179 38.2718 53.2068 39.2225V44.2303H50.8743V39.6979C50.8743 39.1009 50.8079 38.6366 50.6753 38.305C50.5426 37.9733 50.3436 37.7412 50.1004 37.5864C49.8572 37.4316 49.5587 37.3653 49.2382 37.3653C48.6412 37.3542 48.1769 37.5311 47.8452 37.918C47.5136 38.3049 47.3588 38.8577 47.3588 39.5984V44.2303H45.0263H45.0152Z" fill="#130D33"/>
    <path d="M59.6076 44.2303V31.8489H67.4454V34.0599H62.0286V36.8678H66.6937V39.0235H62.0286V42.0083H67.5118V44.2193H59.6076V44.2303Z" fill="#130D33"/>
    <path d="M73.6472 44.4404C72.7296 44.4404 71.9116 44.2414 71.193 43.8434C70.4744 43.4454 69.9106 42.9037 69.5127 42.1962C69.1147 41.4998 68.9157 40.6928 68.9157 39.7973C68.9157 38.9019 69.1147 38.0838 69.5127 37.3874C69.9106 36.6909 70.4634 36.1492 71.1709 35.7513C71.8784 35.3533 72.6965 35.1543 73.614 35.1543C74.5316 35.1543 75.3054 35.3754 76.035 35.8065C76.7646 36.2487 77.2953 36.8789 77.6269 37.6969L75.438 38.4708C75.2722 38.1281 75.018 37.8517 74.6642 37.6527C74.3215 37.4427 73.9346 37.3432 73.5035 37.3432C73.0723 37.3432 72.6854 37.4427 72.3538 37.6527C72.0221 37.8627 71.7679 38.1502 71.5799 38.515C71.392 38.8798 71.2925 39.2999 71.2925 39.7863C71.2925 40.2727 71.3809 40.6928 71.5799 41.0465C71.7679 41.4113 72.0332 41.6877 72.3759 41.9088C72.7186 42.1188 73.1055 42.2294 73.5477 42.2294C73.9899 42.2294 74.3547 42.1188 74.7084 41.8978C75.0511 41.6767 75.3164 41.3782 75.4823 41.0134L77.6932 41.7872C77.3505 42.6274 76.8199 43.2685 76.0903 43.7329C75.3607 44.1972 74.5537 44.4182 73.6582 44.4182L73.6472 44.4404Z" fill="#130D33"/>
    <path d="M83.1985 44.4404C82.3031 44.4404 81.5071 44.2414 80.7996 43.8434C80.1032 43.4454 79.5504 42.9037 79.1525 42.2073C78.7545 41.5108 78.5555 40.7149 78.5555 39.7973C78.5555 38.8798 78.7545 38.0838 79.1414 37.3874C79.5283 36.6909 80.07 36.1492 80.7665 35.7513C81.4629 35.3533 82.2589 35.1543 83.1543 35.1543C84.0498 35.1543 84.8678 35.3533 85.5643 35.7513C86.2607 36.1492 86.8024 36.6909 87.1893 37.3874C87.5762 38.0838 87.7752 38.8798 87.7752 39.7973C87.7752 40.7149 87.5762 41.5108 87.1893 42.2073C86.8024 42.9037 86.2607 43.4454 85.5753 43.8434C84.8899 44.2414 84.094 44.4404 83.1985 44.4404ZM83.1985 42.2847C83.6297 42.2847 84.0166 42.1741 84.3482 41.9641C84.6799 41.754 84.9341 41.4556 85.1221 41.0907C85.31 40.7149 85.3984 40.2948 85.3984 39.8084C85.3984 39.322 85.2989 38.9019 85.111 38.526C84.9231 38.1502 84.6578 37.8627 84.3261 37.6527C83.9945 37.4427 83.6076 37.3321 83.1654 37.3321C82.7232 37.3321 82.3584 37.4427 82.0267 37.6527C81.6951 37.8627 81.4298 38.1612 81.2418 38.526C81.0539 38.9019 80.9544 39.322 80.9544 39.8084C80.9544 40.2948 81.0428 40.7149 81.2418 41.0907C81.4298 41.4666 81.6951 41.754 82.0378 41.9641C82.3805 42.1741 82.7674 42.2847 83.2096 42.2847H83.1985Z" fill="#130D33"/>
    <path d="M92.6283 44.4404C92.0645 44.4404 91.5339 44.3519 91.0364 44.1861C90.5389 44.0203 90.1078 43.766 89.7319 43.4454C89.3561 43.1248 89.0576 42.7269 88.8475 42.2515L90.8485 41.334C91.0253 41.6214 91.2685 41.8646 91.5781 42.0636C91.8876 42.2736 92.2414 42.3731 92.6394 42.3731C93.0373 42.3731 93.3247 42.3178 93.5458 42.2073C93.7559 42.0967 93.8664 41.9309 93.8664 41.7209C93.8664 41.5108 93.778 41.3561 93.6122 41.2566C93.4353 41.1571 93.2031 41.0686 92.9157 41.0023L92.0977 40.7923C91.2464 40.5712 90.5831 40.2174 90.0857 39.72C89.5993 39.2335 89.3561 38.6698 89.3561 38.0286C89.3561 37.1221 89.6435 36.4146 90.2294 35.9282C90.8153 35.4307 91.6444 35.1875 92.7167 35.1875C93.2695 35.1875 93.789 35.2649 94.2644 35.4307C94.7398 35.5965 95.1488 35.8287 95.4915 36.1161C95.8342 36.4146 96.0663 36.7573 96.199 37.1442L94.2755 38.0286C94.187 37.7964 93.988 37.5974 93.6785 37.4537C93.3579 37.31 93.0373 37.2326 92.7278 37.2326C92.4182 37.2326 92.164 37.299 91.9982 37.4316C91.8323 37.5643 91.7439 37.7522 91.7439 37.9844C91.7439 38.1391 91.8213 38.2607 91.9871 38.3602C92.1529 38.4597 92.3851 38.5481 92.6946 38.6145L93.8443 38.9019C94.4192 39.0456 94.8835 39.2667 95.2372 39.5873C95.5799 39.8968 95.8342 40.2506 96 40.6265C96.1548 41.0134 96.2432 41.3892 96.2432 41.754C96.2432 42.2847 96.0884 42.749 95.7789 43.158C95.4694 43.567 95.0382 43.8766 94.5076 44.1087C93.9659 44.3298 93.3579 44.4404 92.6725 44.4404H92.6283Z" fill="#130D33"/>
    <path d="M99.3275 47.9779C99.0069 47.9779 98.6532 47.9116 98.2773 47.79C97.8904 47.6684 97.5587 47.5247 97.2603 47.3588L98.1225 45.4685C98.3215 45.579 98.5095 45.6564 98.6753 45.7227C98.8411 45.7891 98.9959 45.8222 99.1285 45.8222C99.3717 45.8222 99.5928 45.7559 99.7808 45.6232C99.9687 45.4906 100.123 45.2916 100.245 45.0263L100.621 44.1198L96.6191 35.3865H99.1838L101.693 41.4887L104.103 35.3865H106.668L102.655 44.9931C102.412 45.579 102.146 46.1096 101.881 46.5629C101.605 47.0161 101.273 47.3699 100.886 47.6131C100.488 47.8563 99.9797 47.989 99.3386 47.989L99.3275 47.9779Z" fill="#130D33"/>
    <path d="M110.637 44.4404C110.073 44.4404 109.542 44.3519 109.045 44.1861C108.547 44.0203 108.116 43.766 107.74 43.4454C107.364 43.1248 107.066 42.7269 106.856 42.2515L108.857 41.334C109.034 41.6214 109.277 41.8646 109.586 42.0636C109.896 42.2736 110.25 42.3731 110.648 42.3731C111.046 42.3731 111.333 42.3178 111.554 42.2073C111.764 42.0967 111.875 41.9309 111.875 41.7209C111.875 41.5108 111.786 41.3561 111.62 41.2566C111.444 41.1571 111.211 41.0686 110.924 41.0023L110.106 40.7923C109.255 40.5712 108.591 40.2174 108.094 39.72C107.608 39.2335 107.364 38.6698 107.364 38.0286C107.364 37.1221 107.652 36.4146 108.238 35.9282C108.824 35.4307 109.653 35.1875 110.725 35.1875C111.278 35.1875 111.797 35.2649 112.273 35.4307C112.748 35.5965 113.157 35.8287 113.5 36.1161C113.843 36.4146 114.075 36.7573 114.207 37.1442L112.284 38.0286C112.195 37.7964 111.996 37.5974 111.687 37.4537C111.366 37.31 111.046 37.2326 110.736 37.2326C110.427 37.2326 110.172 37.299 110.006 37.4316C109.841 37.5643 109.752 37.7522 109.752 37.9844C109.752 38.1391 109.83 38.2607 109.995 38.3602C110.161 38.4597 110.393 38.5481 110.703 38.6145L111.853 38.9019C112.427 39.0456 112.892 39.2667 113.246 39.5873C113.588 39.8968 113.843 40.2506 114.008 40.6265C114.163 41.0134 114.252 41.3892 114.252 41.754C114.252 42.2847 114.097 42.749 113.787 43.158C113.478 43.567 113.047 43.8766 112.516 44.1087C111.974 44.3298 111.366 44.4404 110.681 44.4404H110.637Z" fill="#130D33"/>
    <path d="M119.215 44.4404C118.231 44.4404 117.502 44.1972 116.993 43.7108C116.496 43.2243 116.241 42.5389 116.241 41.6435V37.3653H114.804V35.3865H116.241V32.6228H118.574V35.3865H120.785V37.3653H118.574V41.135C118.574 41.5108 118.651 41.7983 118.817 41.9973C118.983 42.1962 119.226 42.2847 119.547 42.2847C119.668 42.2847 119.79 42.2626 119.934 42.2073C120.077 42.152 120.221 42.0746 120.376 41.9641L121.194 43.7108C120.907 43.9208 120.597 44.0977 120.243 44.2303C119.901 44.363 119.547 44.4293 119.204 44.4293L119.215 44.4404Z" fill="#130D33"/>
    <path d="M126.379 44.4404C125.505 44.4404 124.731 44.2414 124.057 43.8434C123.383 43.4454 122.863 42.9037 122.476 42.2073C122.089 41.5108 121.901 40.7149 121.901 39.7973C121.901 38.8798 122.1 38.0838 122.498 37.3874C122.896 36.6909 123.438 36.1492 124.123 35.7513C124.809 35.3533 125.605 35.1543 126.5 35.1543C127.274 35.1543 127.993 35.3533 128.645 35.7623C129.297 36.1714 129.828 36.7683 130.215 37.5532C130.602 38.3381 130.812 39.2888 130.812 40.4053H124.333C124.389 40.9913 124.643 41.4666 125.096 41.8093C125.55 42.152 126.047 42.3289 126.622 42.3289C127.108 42.3289 127.495 42.2294 127.805 42.0194C128.114 41.8093 128.346 41.544 128.512 41.2123L130.602 42.0304C130.358 42.5279 130.038 42.948 129.64 43.3128C129.242 43.6776 128.778 43.9429 128.236 44.1308C127.694 44.3188 127.075 44.4182 126.379 44.4182V44.4404ZM124.466 38.6919H128.291C128.258 38.327 128.136 38.0286 127.937 37.8075C127.738 37.5864 127.506 37.4205 127.23 37.31C126.953 37.1995 126.688 37.1552 126.434 37.1552C126.18 37.1552 125.914 37.2105 125.627 37.31C125.339 37.4095 125.085 37.5753 124.864 37.7964C124.643 38.0175 124.51 38.327 124.466 38.7029V38.6919Z" fill="#130D33"/>
    <path d="M132.182 44.2303V35.3865H134.371L134.482 36.5362C134.758 36.0829 135.101 35.7513 135.521 35.5191C135.941 35.287 136.416 35.1764 136.936 35.1764C137.655 35.1764 138.263 35.3312 138.749 35.6407C139.235 35.9503 139.589 36.4146 139.821 37.0558C140.076 36.4588 140.451 35.9945 140.916 35.6628C141.391 35.3423 141.933 35.1764 142.563 35.1764C143.602 35.1764 144.387 35.5081 144.929 36.1603C145.47 36.8125 145.747 37.8185 145.747 39.1783V44.2414H143.414V39.7089C143.414 39.1119 143.348 38.6476 143.215 38.316C143.082 37.9844 142.906 37.7522 142.684 37.5974C142.463 37.4537 142.198 37.3763 141.889 37.3763C141.325 37.3653 140.883 37.5422 140.584 37.9291C140.286 38.316 140.12 38.8687 140.12 39.6094V44.2414H137.787V39.7089C137.787 39.1119 137.721 38.6476 137.599 38.316C137.478 37.9844 137.301 37.7522 137.069 37.5974C136.836 37.4427 136.571 37.3763 136.262 37.3763C135.698 37.3653 135.267 37.5422 134.957 37.9291C134.659 38.305 134.504 38.8687 134.504 39.6094V44.2414H132.171L132.182 44.2303Z" fill="#130D33"/>
</g>
<defs>
<clipPath id="clip0_379_55">
<rect width="165.922" height="48" fill="white"/>
</clipPath>
</defs>
</svg>
