<svg width="597" height="72" viewBox="0 0 597 72" fill="none" xmlns="http://www.w3.org/2000/svg">
<g clip-path="url(#clip0_232_219)">
<path d="M0.0441895 57.3332C0.0441895 51.4421 4.81982 46.6665 10.7109 46.6665H21.3775V57.3332C21.3775 63.2242 16.6019 67.9998 10.7109 67.9998C4.81982 67.9998 0.0441895 63.2242 0.0441895 57.3332Z" fill="#0ACF83"/>
<path d="M21.3774 35.9999C21.3774 30.1089 26.1531 25.3333 32.044 25.3333C37.9351 25.3333 42.7108 30.1089 42.7108 35.9999C42.7108 41.891 37.9351 46.6666 32.044 46.6666C26.1531 46.6666 21.3774 41.8909 21.3774 35.9999Z" fill="#1ABCFE"/>
<path d="M0.0441895 35.9998C0.0441895 41.8909 4.81982 46.6665 10.7109 46.6665H21.3775V25.3332H10.7109C4.81982 25.3332 0.0441895 30.1088 0.0441895 35.9998Z" fill="#A259FF"/>
<path d="M21.3774 4V25.3333H32.0441C37.9351 25.3333 42.7108 20.5577 42.7108 14.6667C42.7108 8.77563 37.9351 4 32.0441 4H21.3774Z" fill="#FF7262"/>
<path d="M0.0441895 14.6666C0.0441895 20.5576 4.81982 25.3333 10.7109 25.3333H21.3775V3.99991H10.7109C4.81982 3.99991 0.0441895 8.77554 0.0441895 14.6666Z" fill="#F24E1E"/>
</g>
<g clip-path="url(#clip1_232_219)">
<path d="M72.4545 63.0938L67 2H127L121.545 63.0938L96.9335 70" fill="#E34F26"/>
<path d="M97.0665 64.6875L116.889 59.2422L121.545 6.91406H97.0665" fill="#EF652A"/>
<path d="M97.0665 29.625H87.0887L86.4235 21.9219H97.0665V14.4844H96.9335H78.1752L78.3082 16.4766L80.1707 37.1953H97.0665V29.625ZM97.0665 49.1484H96.9335L88.5521 46.8906L88.02 40.9141H84.0288H80.5698L81.5011 52.7344L96.9335 56.9844H97.0665V49.1484Z" fill="#EBEBEB"/>
<path d="M96.9335 29.625V37.1953H106.246L105.315 46.8906L96.9335 49.1484V56.9844L112.366 52.7344L112.499 51.4062L114.228 31.6172L114.494 29.625H112.366H96.9335ZM96.9335 14.4844V19.1328V21.9219H115.16L115.293 20.3281L115.692 16.4766L115.825 14.4844H96.9335Z" fill="white"/>
</g>
<g clip-path="url(#clip2_232_219)">
<path d="M225.894 41.3444C222.852 41.3632 220.218 42.1699 218.009 43.3707C217.193 41.5884 216.377 40.031 216.241 38.8678C216.089 37.5169 215.902 36.6914 216.088 35.0778C216.275 33.4643 217.125 31.1753 217.125 30.9876C217.108 30.8188 216.938 29.9933 215.188 29.9745C213.437 29.9558 211.925 30.3497 211.755 30.8563C211.585 31.3629 211.245 32.5261 211.024 33.7269C210.718 35.4906 207.524 41.7385 205.705 45.0218C205.111 43.746 204.601 42.6202 204.499 41.7197C204.346 40.3688 204.159 39.5432 204.346 37.9297C204.533 36.3161 205.382 34.0271 205.382 33.8395C205.365 33.6707 205.195 32.8452 203.445 32.8263C201.695 32.8076 200.182 33.2016 200.012 33.7082C199.842 34.2147 199.656 35.4155 199.282 36.5788C198.925 37.7421 194.676 48.1739 193.572 50.8945C193.011 52.2829 192.518 53.3898 192.161 54.1403C191.804 54.8908 192.144 54.1966 192.11 54.2717C191.804 54.9096 191.635 55.266 191.635 55.266V55.2848C191.397 55.7538 191.142 56.2041 191.023 56.2041C190.938 56.2041 190.768 54.9471 191.057 53.221C191.686 49.5998 193.215 43.9524 193.198 43.746C193.198 43.6522 193.487 42.6578 192.212 42.1512C190.972 41.6446 190.53 42.489 190.428 42.489C190.326 42.489 190.241 42.7892 190.241 42.7892C190.241 42.7892 191.618 36.4287 187.607 36.4287C185.092 36.4287 181.625 39.4495 179.909 42.2075C178.821 42.8642 176.51 44.2526 174.063 45.7348C173.128 46.2976 172.16 46.898 171.242 47.4422L171.055 47.217C166.195 41.4945 157.205 37.4419 157.579 29.7493C157.715 26.9538 158.599 19.5802 174.845 10.6493C188.151 3.33206 198.806 5.33963 200.658 9.80505C203.292 16.1843 194.965 28.042 181.132 29.7493C175.864 30.4061 173.094 28.1546 172.398 27.3102C171.667 26.4285 171.565 26.3909 171.293 26.5597C170.851 26.8224 171.123 27.6104 171.293 28.0795C171.701 29.2615 173.4 31.3629 176.289 32.4136C178.821 33.333 185.007 33.8395 192.484 30.6499C200.862 27.0664 207.405 17.1224 205.484 8.81065C203.53 0.348862 190.819 -2.42795 178.804 2.28138C171.65 5.09572 163.901 9.48609 158.327 15.2461C151.699 22.0756 150.646 28.042 151.088 30.5186C152.634 39.3556 163.663 45.1157 168.081 49.3747C167.86 49.506 167.656 49.6373 167.47 49.7499C165.26 50.9507 156.848 55.8102 154.741 60.951C152.362 66.7673 155.115 70.9513 156.95 71.5141C162.626 73.2591 168.438 70.1257 171.582 64.9661C174.709 59.8065 174.335 53.1084 172.891 50.0501L172.84 49.9375L174.573 48.8118C175.694 48.0801 176.799 47.4047 177.768 46.823C177.224 48.4554 176.833 50.3878 176.629 53.2022C176.391 56.5043 177.615 60.7821 179.229 62.4707C179.943 63.2025 180.793 63.2212 181.319 63.2212C183.189 63.2212 184.038 61.5139 184.973 59.4688C186.129 56.9734 187.148 54.084 187.148 54.084C187.148 54.084 185.874 61.9079 189.357 61.9079C190.632 61.9079 191.906 60.088 192.484 59.1499V59.1686C192.484 59.1686 192.518 59.1123 192.586 58.9809C192.722 58.7558 192.79 58.6245 192.79 58.6245V58.587C193.3 57.6113 194.438 55.3786 196.138 51.6825C198.33 46.9169 200.437 40.9505 200.437 40.9505C200.437 40.9505 200.641 42.4139 201.27 44.8155C201.644 46.2414 202.46 47.7986 203.088 49.3184C202.578 50.1064 202.273 50.5567 202.273 50.5567L202.29 50.5754C201.882 51.1758 201.423 51.8138 200.947 52.4517C199.214 54.7407 197.141 57.3487 196.869 58.0992C196.546 58.9809 196.614 59.6377 197.242 60.163C197.701 60.5383 198.517 60.6133 199.384 60.5383C200.947 60.4257 202.035 59.9941 202.578 59.7314C203.428 59.3937 204.397 58.8872 205.331 58.1367C207.031 56.7483 208.067 54.7782 207.965 52.1515C207.915 50.7068 207.49 49.2809 206.963 47.93C207.116 47.6861 207.269 47.4422 207.422 47.1795C210.107 42.8454 212.18 38.0798 212.18 38.0798C212.18 38.0798 212.384 39.5432 213.013 41.9448C213.335 43.1644 213.981 44.4965 214.559 45.8098C212.044 48.0801 210.464 50.7068 209.92 52.433C208.917 55.6225 209.699 57.0672 211.177 57.4049C211.84 57.555 212.792 57.2173 213.505 56.8796C214.389 56.5607 215.46 56.0165 216.445 55.2098C218.145 53.8214 219.776 51.8888 219.691 49.2809C219.64 48.0801 219.351 46.898 218.96 45.7723C221.102 44.7967 223.872 44.2338 227.389 44.7029C234.951 45.6785 236.447 50.8945 236.158 53.0709C235.869 55.2473 234.289 56.4481 233.762 56.8233C233.235 57.1798 233.065 57.3111 233.116 57.5738C233.184 57.9678 233.422 57.9491 233.881 57.874C234.51 57.7614 237.857 56.0915 237.993 52.0764C238.197 46.9169 233.762 41.2882 225.894 41.3444ZM167.572 63.0524C165.073 66.0731 161.556 67.2176 160.06 66.242C158.446 65.21 159.075 60.7634 162.151 57.555C164.02 55.6037 166.45 53.8026 168.047 52.6956C168.404 52.4517 168.948 52.0952 169.594 51.6637C169.696 51.5886 169.764 51.5511 169.764 51.5511C169.883 51.476 170.019 51.3823 170.155 51.2884C171.293 55.8664 170.205 59.8815 167.572 63.0524ZM185.84 49.3371C184.973 51.6825 183.138 57.7051 182.033 57.3674C181.081 57.086 180.504 52.5267 181.846 48.0238C182.526 45.7536 183.97 43.0518 184.82 42.0011C186.197 40.3125 187.692 39.7497 188.066 40.4438C188.508 41.3444 186.383 47.8737 185.84 49.3371ZM200.913 57.2923C200.539 57.4988 200.199 57.6489 200.046 57.5363C199.927 57.4612 200.199 57.1798 200.199 57.1798C200.199 57.1798 202.086 54.9471 202.833 53.9151C203.258 53.3147 203.768 52.6206 204.312 51.8326V52.0577C204.312 54.7595 201.967 56.5607 200.913 57.2923ZM212.537 54.3654C212.265 54.1403 212.299 53.4461 213.217 51.2697C213.573 50.4066 214.389 48.9619 215.8 47.5923C215.969 48.1552 216.071 48.6992 216.055 49.2058C216.037 52.5831 213.862 53.8401 212.537 54.3654Z" fill="#CF649A"/>
</g>
<path d="M316.477 6.16804C316.482 6.23682 316.484 6.30572 316.484 6.37463V65.6255C316.484 67.4547 314.986 68.9375 313.138 68.9375C313.088 68.9375 313.038 68.9364 312.987 68.9342L268.321 66.9486C266.581 66.8713 265.192 65.4864 265.127 63.7641L263.065 9.38944C262.997 7.59366 264.388 6.07175 266.2 5.95966L302.829 3.69362L302.51 11.1596C302.507 11.2457 302.526 11.3306 302.565 11.4064L302.611 11.4787C302.778 11.6961 303.091 11.7386 303.311 11.5737L306.241 9.37396L308.715 11.3034C308.808 11.3757 308.924 11.4132 309.042 11.4091C309.317 11.3996 309.533 11.1708 309.523 10.8981L309.246 3.29625L312.929 3.06906C314.773 2.95496 316.362 4.34242 316.477 6.16804Z" fill="#FF4785"/>
<mask id="mask0_232_219" style="mask-type:luminance" maskUnits="userSpaceOnUse" x="263" y="3" width="54" height="66">
<path d="M265.127 63.7641L263.065 9.38944C262.997 7.59366 264.388 6.07175 266.2 5.95966L312.929 3.06906C314.773 2.95496 316.362 4.34242 316.477 6.16804C316.482 6.23682 316.484 6.30572 316.484 6.37463V65.6255C316.484 67.4547 314.986 68.9375 313.138 68.9375C313.088 68.9375 313.038 68.9364 312.987 68.9342L268.321 66.9486C266.581 66.8713 265.192 65.4864 265.127 63.7641Z" fill="white"/>
</mask>
<g mask="url(#mask0_232_219)">
<path d="M294.303 27.8917C294.303 29.1803 303.073 28.5627 304.25 27.6575C304.25 18.8827 299.493 14.2716 290.782 14.2716C282.07 14.2716 277.19 18.9544 277.19 25.9786C277.19 38.2124 293.871 38.4466 293.871 45.1195C293.871 46.9926 292.944 48.1048 290.905 48.1048C288.249 48.1048 287.198 46.762 287.322 42.1963C287.322 41.2058 277.19 40.897 276.881 42.1963C276.094 53.2606 283.059 56.452 291.029 56.452C298.751 56.452 304.806 52.3779 304.806 45.0025C304.806 31.8906 287.878 32.2419 287.878 25.7445C287.878 23.1104 289.855 22.7592 291.029 22.7592C292.264 22.7592 294.489 22.9748 294.303 27.8917Z" fill="white"/>
</g>
<mask id="mask1_232_219" style="mask-type:luminance" maskUnits="userSpaceOnUse" x="263" y="3" width="54" height="66">
<path d="M265.127 63.7641L263.065 9.38944C262.997 7.59366 264.388 6.07175 266.2 5.95966L312.929 3.06906C314.773 2.95496 316.362 4.34242 316.477 6.16804C316.482 6.23682 316.484 6.30572 316.484 6.37463V65.6255C316.484 67.4547 314.986 68.9375 313.138 68.9375C313.088 68.9375 313.038 68.9364 312.987 68.9342L268.321 66.9486C266.581 66.8713 265.192 65.4864 265.127 63.7641Z" fill="white"/>
</mask>
<g mask="url(#mask1_232_219)">
<path d="M302.51 11.1596L302.829 3.69106L309.247 3.29443L309.523 10.8981C309.533 11.1708 309.317 11.3996 309.042 11.4091C308.924 11.4132 308.808 11.3757 308.715 11.3034L306.241 9.37396L303.311 11.5737C303.091 11.7386 302.778 11.6961 302.611 11.4787C302.541 11.3872 302.505 11.2743 302.51 11.1596Z" fill="white"/>
</g>
<path d="M404.173 55.492L374.993 72V59.1456L393.175 49.1413L404.173 55.492ZM406.172 53.6844V19.1668L395.499 25.3358V47.525L406.172 53.6844ZM343.249 55.492L372.43 72V59.1456L354.238 49.1413L343.249 55.492ZM341.25 53.6844V19.1668L351.924 25.3358V47.525L341.25 53.6844ZM342.503 16.9288L372.43 0V12.424L353.253 22.9734L353.1 23.0595L342.503 16.9288ZM404.919 16.9288L374.993 0V12.424L394.169 22.9639L394.322 23.0499L404.919 16.9288Z" fill="#8ED6FB"/>
<path d="M372.43 56.2189L354.487 46.3485V26.8087L372.43 37.1668V56.2189ZM374.993 56.2189L392.935 46.3581V26.8087L374.993 37.1668V56.2189ZM355.702 24.5515L373.711 14.6525L391.721 24.5515L373.711 34.9479L355.702 24.5515Z" fill="#1C78C0"/>
<g clip-path="url(#clip3_232_219)">
<path d="M498.172 2H430.172V70H498.172V2Z" fill="#F7DF1E"/>
<path d="M475.851 55.1253C477.221 57.3617 479.003 59.0056 482.155 59.0056C484.802 59.0056 486.494 57.6823 486.494 55.8538C486.494 53.6627 484.756 52.8867 481.842 51.6119L480.244 50.9265C475.633 48.9621 472.57 46.5011 472.57 41.2986C472.57 36.5062 476.221 32.858 481.928 32.858C485.991 32.858 488.911 34.2719 491.016 37.9742L486.04 41.1691C484.945 39.2046 483.763 38.4307 481.928 38.4307C480.056 38.4307 478.87 39.618 478.87 41.1691C478.87 43.086 480.057 43.8621 482.799 45.0494L484.396 45.7337C489.826 48.0619 492.891 50.4354 492.891 55.7718C492.891 61.5248 488.372 64.6766 482.302 64.6766C476.368 64.6766 472.534 61.8486 470.658 58.1421L475.851 55.1253ZM453.278 55.679C454.282 57.4599 455.195 58.9657 457.391 58.9657C459.49 58.9657 460.814 58.1443 460.814 54.9504V33.2228H467.204V55.0368C467.204 61.6533 463.325 64.6647 457.663 64.6647C452.547 64.6647 449.584 62.017 448.077 58.828L453.278 55.679Z" fill="black"/>
</g>
<g clip-path="url(#clip4_232_219)">
<path d="M559.487 42.4113C563.161 42.4113 566.139 39.5408 566.139 35.9999C566.139 32.459 563.161 29.5885 559.487 29.5885C555.814 29.5885 552.836 32.459 552.836 35.9999C552.836 39.5408 555.814 42.4113 559.487 42.4113Z" fill="#3B7DA1"/>
<path d="M593.558 36.0001C593.558 34.8293 592.918 33.5097 591.31 32.1105C589.706 30.7148 587.29 29.3845 584.166 28.2345C577.928 25.9391 569.203 24.4865 559.487 24.4865C549.771 24.4865 541.046 25.9391 534.809 28.2345C531.684 29.3845 529.269 30.7148 527.665 32.1105C526.057 33.5097 525.417 34.8293 525.417 36.0001C525.417 37.1709 526.057 38.4897 527.665 39.8888C529.269 41.2846 531.684 42.6157 534.809 43.7658C541.046 46.0611 549.771 47.5128 559.487 47.5128C569.203 47.5128 577.928 46.0612 584.166 43.7658C587.291 42.6157 589.706 41.2846 591.31 39.8888C592.918 38.4897 593.558 37.1709 593.558 36.0001ZM596.802 36.0001C596.802 38.4566 595.444 40.5933 593.44 42.3371C591.432 44.0841 588.62 45.5838 585.287 46.8107C578.606 49.2694 569.483 50.758 559.487 50.758C549.491 50.7579 540.369 49.2694 533.688 46.8107C530.354 45.5838 527.543 44.0841 525.535 42.3371C523.531 40.5933 522.172 38.4566 522.172 36.0001C522.172 33.5436 523.531 31.4071 525.535 29.6632C527.543 27.9161 530.354 26.4166 533.688 25.1896C540.369 22.7309 549.491 21.2424 559.487 21.2423C569.483 21.2423 578.606 22.7309 585.287 25.1896C588.621 26.4166 591.432 27.9161 593.44 29.6632C595.444 31.4071 596.802 33.5436 596.802 36.0001Z" fill="#3B7DA1"/>
<path d="M540.852 4.78823C543.005 3.58973 545.557 3.64333 548.12 4.44253C550.687 5.24277 553.44 6.83867 556.214 9.01187C561.771 13.3646 567.677 20.2433 572.682 28.5988C577.686 36.9529 580.918 45.3285 582.053 52.1574C582.62 55.5658 582.679 58.6802 582.11 61.2472C581.538 63.8216 580.289 66.0055 578.123 67.2111C575.97 68.4096 573.418 68.3569 570.855 67.5578C568.288 66.7575 565.535 65.1616 562.761 62.9884C557.205 58.6357 551.298 51.7571 546.293 43.4015C541.289 35.0473 538.057 26.6719 536.922 19.8429C536.356 16.4345 536.296 13.3201 536.865 10.7531C537.437 8.17852 538.686 5.99378 540.852 4.78823ZM547.155 7.54019C545.087 6.89565 543.535 7.00903 542.43 7.62417C541.337 8.23226 540.48 9.44335 540.033 11.4552C539.585 13.4749 539.596 16.1392 540.123 19.3107C541.176 25.642 544.225 33.6342 549.077 41.7345C553.929 49.8333 559.588 56.3815 564.762 60.4347C567.353 62.4644 569.757 63.8166 571.821 64.4601C573.888 65.1046 575.44 64.9912 576.545 64.3761C577.638 63.768 578.495 62.5563 578.942 60.5441C579.39 58.5246 579.379 55.8608 578.852 52.6896C577.799 46.3584 574.75 38.3661 569.898 30.2658C565.046 22.1669 559.387 15.6189 554.213 11.5656C551.622 9.53576 549.218 8.18369 547.155 7.54019Z" fill="#3B7DA1"/>
<path d="M570.855 4.44267C573.418 3.64357 575.969 3.59021 578.122 4.78838C580.289 5.99391 581.538 8.17861 582.11 10.7532C582.679 13.3203 582.62 16.4346 582.053 19.8431C580.918 26.672 577.686 35.0475 572.682 43.4017C567.677 51.7572 561.771 58.6358 556.214 62.9886C553.44 65.1618 550.687 66.7577 548.12 67.5579C545.557 68.3571 543.006 68.4097 540.852 67.2112C538.686 66.0056 537.437 63.8218 536.866 61.2474C536.296 58.6803 536.356 55.566 536.922 52.1575C538.057 45.3286 541.289 36.9531 546.293 28.5989C551.298 20.2434 557.205 13.3648 562.761 9.01201C565.535 6.83882 568.288 5.24292 570.855 4.44267ZM576.545 7.62431C575.44 7.00919 573.888 6.89583 571.821 7.54033C569.757 8.18383 567.353 9.53594 564.762 11.5657C559.588 15.619 553.929 22.1671 549.077 30.2659C544.225 38.3663 541.176 46.3585 540.123 52.6897C539.596 55.861 539.585 58.5247 540.033 60.5442C540.48 62.5564 541.337 63.7682 542.43 64.3763C543.535 64.9914 545.088 65.1048 547.155 64.4603C549.218 63.8168 551.622 62.4646 554.213 60.4349C559.387 56.3816 565.046 49.8334 569.898 41.7347C574.75 33.6343 577.799 25.6421 578.852 19.3108C579.379 16.1394 579.39 13.475 578.942 11.4554C578.495 9.44354 577.638 8.23243 576.545 7.62431Z" fill="#3B7DA1"/>
</g>
<defs>
<clipPath id="clip0_232_219">
<rect width="43" height="64" fill="white" transform="translate(0 4)"/>
</clipPath>
<clipPath id="clip1_232_219">
<rect width="60" height="68" fill="white" transform="translate(67 2)"/>
</clipPath>
<clipPath id="clip2_232_219">
<rect width="87" height="72" fill="white" transform="translate(151)"/>
</clipPath>
<clipPath id="clip3_232_219">
<rect width="68" height="68" fill="white" transform="translate(430.172 2)"/>
</clipPath>
<clipPath id="clip4_232_219">
<rect width="74.6299" height="64.2756" fill="white" transform="translate(522.172 3.86221)"/>
</clipPath>
</defs>
</svg>
