<svg xmlns="http://www.w3.org/2000/svg" width="518" height="72" fill="none" viewBox="0 0 518 72">
  <path fill="#8ED6FB" d="M62.923 55.492 33.743 72V59.146L51.924 49.14l11 6.351Zm2-1.808V19.167l-10.674 6.169v22.189l10.673 6.16ZM1.998 55.492 31.179 72V59.146L12.99 49.14 2 55.491ZM0 53.684V19.167l10.674 6.169v22.189L0 53.685ZM1.253 16.93 31.18 0v12.424l-19.177 10.55-.153.085-10.597-6.13Zm62.416 0L33.743 0v12.424l19.176 10.54.153.086 10.597-6.121Z"/>
  <path fill="#1C78C0" d="m31.18 56.219-17.943-9.87v-19.54L31.18 37.167v19.052Zm2.563 0 17.942-9.86v-19.55L33.743 37.167v19.052ZM14.452 24.55l18.01-9.898 18.009 9.899-18.01 10.396-18.01-10.396Z"/>
  <g clip-path="url(#a)">
    <path fill="#E34F26" d="M94.377 63.094 88.922 2h60l-5.454 61.094L118.856 70"/>
    <path fill="#EF652A" d="m118.989 64.688 19.823-5.446 4.656-52.328h-24.479"/>
    <path fill="#EBEBEB" d="M118.989 29.625h-9.978l-.665-7.703h10.643v-7.438h-18.891l.133 1.993 1.862 20.718h16.896v-7.57Zm0 19.523h-.133l-8.381-2.257-.533-5.977h-7.45l.932 11.82 15.432 4.25h.133v-7.836Z"/>
    <path fill="#fff" d="M118.856 29.625v7.57h9.313l-.932 9.696-8.381 2.257v7.836l15.432-4.25.133-1.328 1.73-19.789.266-1.992h-17.561Zm0-15.14v7.436h18.226l.133-1.594.399-3.851.133-1.993h-18.891Z"/>
  </g>
  <g clip-path="url(#b)">
    <path fill="#CF649A" d="M247.816 41.344a16.558 16.558 0 0 0-7.885 2.027c-.816-1.783-1.631-3.34-1.767-4.503-.153-1.351-.34-2.177-.153-3.79.187-1.614 1.036-3.903 1.036-4.09-.016-.17-.186-.995-1.937-1.014-1.75-.018-3.263.376-3.432.882-.17.507-.51 1.67-.731 2.87-.306 1.765-3.501 8.013-5.319 11.296-.595-1.276-1.105-2.402-1.207-3.302-.153-1.351-.34-2.177-.153-3.79.187-1.614 1.037-3.903 1.037-4.09-.017-.17-.187-.995-1.937-1.014-1.751-.018-3.263.376-3.433.882-.17.507-.357 1.708-.731 2.87-.357 1.164-4.605 11.596-5.71 14.316a61.026 61.026 0 0 1-1.41 3.246c-.357.75-.017.057-.051.132l-.476.994v.019c-.238.469-.493.92-.612.92-.085 0-.255-1.258.034-2.984.629-3.621 2.158-9.269 2.141-9.475 0-.094.289-1.088-.985-1.595-1.241-.506-1.683.338-1.785.338-.102 0-.187.3-.187.3s1.377-6.36-2.634-6.36c-2.515 0-5.981 3.02-7.698 5.779-1.087.656-3.398 2.045-5.846 3.527-.934.563-1.903 1.163-2.82 1.707l-.187-.225c-4.861-5.722-13.85-9.775-13.476-17.468.136-2.795 1.019-10.169 17.265-19.1 13.306-7.317 23.961-5.31 25.814-.844 2.634 6.38-5.693 18.237-19.526 19.944-5.268.657-8.038-1.594-8.735-2.439-.731-.881-.833-.92-1.104-.75-.442.262-.17 1.05 0 1.52.407 1.182 2.107 3.283 4.996 4.334 2.532.919 8.717 1.425 16.195-1.764 8.378-3.584 14.92-13.528 13-21.84-1.954-8.461-14.666-11.238-26.68-6.529-7.155 2.815-14.904 7.205-20.478 12.965-6.627 6.83-7.681 12.796-7.239 15.273 1.546 8.837 12.575 14.597 16.994 18.856-.221.131-.425.262-.612.375-2.209 1.2-10.621 6.06-12.728 11.201-2.379 5.816.374 10 2.209 10.563 5.676 1.745 11.488-1.388 14.631-6.548 3.127-5.16 2.753-11.858 1.309-14.916l-.051-.112 1.733-1.126a102.546 102.546 0 0 1 3.195-1.989c-.544 1.632-.934 3.565-1.138 6.38-.238 3.301.985 7.58 2.6 9.268.713.732 1.563.75 2.09.75 1.869 0 2.719-1.707 3.653-3.752 1.156-2.496 2.176-5.385 2.176-5.385s-1.275 7.824 2.209 7.824c1.274 0 2.549-1.82 3.127-2.758v.019s.034-.057.102-.188c.136-.225.204-.357.204-.357v-.037c.509-.976 1.648-3.208 3.347-6.905 2.193-4.765 4.3-10.732 4.3-10.732s.204 1.464.832 3.865c.374 1.426 1.19 2.984 1.819 4.503-.51.788-.816 1.239-.816 1.239l.017.018a54.75 54.75 0 0 1-1.342 1.877c-1.734 2.289-3.807 4.897-4.079 5.647-.323.882-.255 1.539.374 2.064.459.375 1.274.45 2.141.375 1.564-.112 2.651-.544 3.195-.807.85-.337 1.818-.844 2.753-1.594 1.699-1.389 2.736-3.359 2.634-5.986-.051-1.444-.476-2.87-1.003-4.221.153-.244.306-.488.459-.75 2.685-4.335 4.758-9.1 4.758-9.1s.204 1.463.833 3.865c.323 1.22.969 2.551 1.546 3.865-2.515 2.27-4.095 4.897-4.639 6.623-1.002 3.19-.221 4.634 1.258 4.972.662.15 1.614-.188 2.328-.525a10.224 10.224 0 0 0 2.94-1.67c1.699-1.389 3.33-3.321 3.246-5.93-.051-1.2-.34-2.382-.731-3.508 2.141-.975 4.911-1.538 8.429-1.07 7.562.977 9.057 6.193 8.768 8.369-.288 2.176-1.869 3.377-2.396 3.752-.527.357-.696.488-.645.75.068.395.305.376.764.301.629-.113 3.977-1.782 4.113-5.798.204-5.16-4.232-10.788-12.1-10.732Zm-58.322 21.708c-2.498 3.021-6.016 4.166-7.511 3.19-1.615-1.032-.986-5.479 2.09-8.687 1.869-1.951 4.299-3.752 5.897-4.86.357-.243.9-.6 1.546-1.031.102-.075.17-.113.17-.113.119-.075.255-.169.391-.263 1.139 4.578.051 8.594-2.583 11.764Zm18.268-13.715c-.867 2.345-2.702 8.368-3.806 8.03-.952-.281-1.53-4.84-.187-9.343.679-2.27 2.124-4.972 2.973-6.023 1.377-1.688 2.872-2.251 3.246-1.557.442.9-1.682 7.43-2.226 8.893Zm15.074 7.955c-.374.207-.714.357-.867.244-.119-.075.153-.356.153-.356s1.886-2.233 2.634-3.265c.425-.6.934-1.294 1.478-2.082v.225c0 2.702-2.345 4.503-3.398 5.234Zm11.623-2.927c-.272-.225-.238-.919.68-3.095.357-.863 1.173-2.308 2.583-3.678.17.563.272 1.107.255 1.614-.017 3.377-2.192 4.634-3.518 5.16Z"/>
  </g>
  <g clip-path="url(#c)">
    <path fill="#F7DF1E" d="M351.922 2h-68v68h68V2Z"/>
    <path fill="#000" d="M329.601 55.125c1.37 2.237 3.152 3.88 6.304 3.88 2.647 0 4.339-1.323 4.339-3.151 0-2.191-1.738-2.967-4.652-4.242l-1.598-.686c-4.611-1.964-7.674-4.425-7.674-9.627 0-4.793 3.651-8.441 9.358-8.441 4.063 0 6.983 1.414 9.088 5.116l-4.976 3.195c-1.095-1.964-2.277-2.738-4.112-2.738-1.872 0-3.058 1.187-3.058 2.738 0 1.917 1.187 2.693 3.929 3.88l1.597.685c5.43 2.328 8.495 4.701 8.495 10.038 0 5.753-4.519 8.905-10.588 8.905-5.935 0-9.769-2.828-11.645-6.535l5.193-3.017Zm-22.573.554c1.004 1.78 1.917 3.287 4.113 3.287 2.099 0 3.424-.822 3.424-4.016V33.223h6.389v21.814c0 6.616-3.879 9.628-9.541 9.628-5.116 0-8.079-2.648-9.586-5.837l5.201-3.149Z"/>
  </g>
  <g clip-path="url(#d)">
    <path fill="#3B7DA1" d="M413.237 42.411c3.674 0 6.652-2.87 6.652-6.411 0-3.541-2.978-6.412-6.652-6.412-3.673 0-6.651 2.871-6.651 6.412 0 3.54 2.978 6.411 6.651 6.411Z"/>
    <path fill="#3B7DA1" d="M447.308 36c0-1.17-.64-2.49-2.248-3.89-1.604-1.395-4.02-2.726-7.144-3.875-6.238-2.296-14.963-3.748-24.679-3.748s-18.441 1.452-24.678 3.748c-3.125 1.15-5.54 2.48-7.144 3.876-1.608 1.399-2.248 2.718-2.248 3.89 0 1.17.64 2.489 2.248 3.888 1.604 1.396 4.019 2.727 7.144 3.877 6.237 2.295 14.962 3.747 24.678 3.747 9.716 0 18.441-1.452 24.679-3.747 3.125-1.15 5.54-2.481 7.144-3.877 1.608-1.4 2.248-2.718 2.248-3.889Zm3.244 0c0 2.457-1.358 4.593-3.362 6.337-2.008 1.747-4.82 3.247-8.153 4.474-6.681 2.458-15.804 3.947-25.8 3.947s-19.118-1.489-25.799-3.947c-3.334-1.227-6.145-2.727-8.153-4.474-2.004-1.744-3.363-3.88-3.363-6.337 0-2.456 1.359-4.593 3.363-6.337 2.008-1.747 4.819-3.246 8.153-4.473 6.681-2.46 15.803-3.948 25.799-3.948 9.996 0 19.119 1.489 25.8 3.948 3.334 1.227 6.145 2.726 8.153 4.473 2.004 1.744 3.362 3.88 3.362 6.337Z"/>
    <path fill="#3B7DA1" d="M394.602 4.788c2.153-1.198 4.705-1.145 7.268-.345 2.567.8 5.32 2.396 8.094 4.569 5.557 4.353 11.463 11.231 16.468 19.587 5.004 8.354 8.236 16.73 9.371 23.558.567 3.409.626 6.523.057 9.09-.572 2.575-1.821 4.758-3.987 5.964-2.153 1.199-4.705 1.146-7.268.347-2.567-.8-5.32-2.396-8.094-4.57-5.556-4.352-11.463-11.23-16.468-19.587-5.004-8.354-8.236-16.73-9.371-23.558-.566-3.409-.626-6.523-.057-9.09.572-2.574 1.821-4.76 3.987-5.965Zm6.303 2.752c-2.068-.644-3.62-.531-4.725.084-1.093.608-1.95 1.82-2.397 3.831-.448 2.02-.437 4.684.09 7.856 1.053 6.331 4.102 14.323 8.954 22.423 4.852 8.1 10.511 14.648 15.685 18.7 2.591 2.03 4.995 3.383 7.059 4.026 2.067.645 3.619.531 4.724-.084 1.093-.608 1.95-1.82 2.397-3.832.448-2.02.437-4.683-.09-7.854-1.053-6.332-4.102-14.324-8.954-22.424s-10.511-14.647-15.685-18.7c-2.591-2.03-4.995-3.382-7.058-4.026Z"/>
    <path fill="#3B7DA1" d="M424.605 4.443c2.563-.8 5.114-.853 7.267.345 2.167 1.206 3.416 3.39 3.988 5.965.569 2.567.51 5.682-.057 9.09-1.135 6.829-4.367 15.204-9.371 23.559-5.005 8.355-10.911 15.234-16.468 19.587-2.774 2.173-5.527 3.769-8.094 4.569-2.563.8-5.114.852-7.268-.347-2.166-1.205-3.415-3.39-3.986-5.964-.57-2.567-.51-5.681.056-9.09 1.135-6.828 4.367-15.204 9.371-23.558 5.005-8.356 10.912-15.234 16.468-19.587 2.774-2.173 5.527-3.77 8.094-4.57Zm5.69 3.181c-1.105-.615-2.657-.728-4.724-.084-2.064.644-4.468 1.996-7.059 4.026-5.174 4.053-10.833 10.601-15.685 18.7-4.852 8.1-7.901 16.093-8.954 22.424-.527 3.17-.538 5.835-.09 7.854.447 2.012 1.304 3.224 2.397 3.832 1.105.615 2.658.729 4.725.084 2.063-.643 4.467-1.995 7.058-4.025 5.174-4.053 10.833-10.602 15.685-18.7 4.852-8.1 7.901-16.093 8.954-22.424.527-3.172.538-5.836.09-7.856-.447-2.011-1.304-3.223-2.397-3.83Z"/>
  </g>
  <g clip-path="url(#e)">
    <path fill="#0ACF83" d="M474.596 57.333c0-5.89 4.776-10.666 10.667-10.666h10.667v10.666c0 5.891-4.776 10.667-10.667 10.667s-10.667-4.776-10.667-10.667Z"/>
    <path fill="#1ABCFE" d="M495.93 36c0-5.891 4.775-10.667 10.666-10.667S517.263 30.11 517.263 36s-4.776 10.667-10.667 10.667S495.93 41.89 495.93 36Z"/>
    <path fill="#A259FF" d="M474.596 36c0 5.89 4.776 10.666 10.667 10.666h10.667V25.334h-10.667c-5.891 0-10.667 4.776-10.667 10.667Z"/>
    <path fill="#FF7262" d="M495.93 4v21.333h10.666c5.891 0 10.667-4.775 10.667-10.666S512.487 4 506.596 4H495.93Z"/>
    <path fill="#F24E1E" d="M474.596 14.667c0 5.89 4.776 10.666 10.667 10.666h10.667V4h-10.667c-5.891 0-10.667 4.776-10.667 10.667Z"/>
  </g>
  <defs>
    <clipPath id="a">
      <path fill="#fff" d="M88.922 2h60v68h-60z"/>
    </clipPath>
    <clipPath id="b">
      <path fill="#fff" d="M172.922 0h87v72h-87z"/>
    </clipPath>
    <clipPath id="c">
      <path fill="#fff" d="M283.922 2h68v68h-68z"/>
    </clipPath>
    <clipPath id="d">
      <path fill="#fff" d="M375.922 3.862h74.63v64.276h-74.63z"/>
    </clipPath>
    <clipPath id="e">
      <path fill="#fff" d="M474.552 4h43v64h-43z"/>
    </clipPath>
  </defs>
</svg>
