<svg width="518" height="72" viewBox="0 0 518 72" fill="none" xmlns="http://www.w3.org/2000/svg">
<g clip-path="url(#clip0_232_219)">
<path d="M0.0441895 57.3332C0.0441895 51.4421 4.81982 46.6665 10.7109 46.6665H21.3775V57.3332C21.3775 63.2242 16.6019 67.9998 10.7109 67.9998C4.81982 67.9998 0.0441895 63.2242 0.0441895 57.3332Z" fill="#0ACF83"/>
<path d="M21.3774 35.9999C21.3774 30.1089 26.1531 25.3333 32.044 25.3333C37.9351 25.3333 42.7108 30.1089 42.7108 35.9999C42.7108 41.891 37.9351 46.6666 32.044 46.6666C26.1531 46.6666 21.3774 41.8909 21.3774 35.9999Z" fill="#1ABCFE"/>
<path d="M0.0441895 35.9998C0.0441895 41.8909 4.81982 46.6665 10.7109 46.6665H21.3775V25.3332H10.7109C4.81982 25.3332 0.0441895 30.1088 0.0441895 35.9998Z" fill="#A259FF"/>
<path d="M21.3774 4V25.3333H32.0441C37.9351 25.3333 42.7108 20.5577 42.7108 14.6667C42.7108 8.77563 37.9351 4 32.0441 4H21.3774Z" fill="#FF7262"/>
<path d="M0.0441895 14.6666C0.0441895 20.5576 4.81982 25.3333 10.7109 25.3333H21.3775V3.99991H10.7109C4.81982 3.99991 0.0441895 8.77554 0.0441895 14.6666Z" fill="#F24E1E"/>
</g>
<g clip-path="url(#clip1_232_219)">
<path d="M72.4545 63.0938L67 2H127L121.545 63.0938L96.9335 70" fill="#E34F26"/>
<path d="M97.0665 64.6875L116.889 59.2422L121.545 6.91406H97.0665" fill="#EF652A"/>
<path d="M97.0665 29.625H87.0887L86.4235 21.9219H97.0665V14.4844H96.9335H78.1752L78.3082 16.4766L80.1707 37.1953H97.0665V29.625ZM97.0665 49.1484H96.9335L88.5521 46.8906L88.02 40.9141H84.0288H80.5698L81.5011 52.7344L96.9335 56.9844H97.0665V49.1484Z" fill="#EBEBEB"/>
<path d="M96.9335 29.625V37.1953H106.246L105.315 46.8906L96.9335 49.1484V56.9844L112.366 52.7344L112.499 51.4062L114.228 31.6172L114.494 29.625H112.366H96.9335ZM96.9335 14.4844V19.1328V21.9219H115.16L115.293 20.3281L115.692 16.4766L115.825 14.4844H96.9335Z" fill="white"/>
</g>
<g clip-path="url(#clip2_232_219)">
<path d="M225.894 41.3444C222.852 41.3632 220.218 42.1699 218.009 43.3707C217.193 41.5884 216.377 40.031 216.241 38.8678C216.089 37.5169 215.902 36.6914 216.088 35.0778C216.275 33.4643 217.125 31.1753 217.125 30.9876C217.108 30.8188 216.938 29.9933 215.188 29.9745C213.437 29.9558 211.925 30.3497 211.755 30.8563C211.585 31.3629 211.245 32.5261 211.024 33.7269C210.718 35.4906 207.524 41.7385 205.705 45.0218C205.111 43.746 204.601 42.6202 204.499 41.7197C204.346 40.3688 204.159 39.5432 204.346 37.9297C204.533 36.3161 205.382 34.0271 205.382 33.8395C205.365 33.6707 205.195 32.8452 203.445 32.8263C201.695 32.8076 200.182 33.2016 200.012 33.7082C199.842 34.2147 199.656 35.4155 199.282 36.5788C198.925 37.7421 194.676 48.1739 193.572 50.8945C193.011 52.2829 192.518 53.3898 192.161 54.1403C191.804 54.8908 192.144 54.1966 192.11 54.2717C191.804 54.9096 191.635 55.266 191.635 55.266V55.2848C191.397 55.7538 191.142 56.2041 191.023 56.2041C190.938 56.2041 190.768 54.9471 191.057 53.221C191.686 49.5998 193.215 43.9524 193.198 43.746C193.198 43.6522 193.487 42.6578 192.212 42.1512C190.972 41.6446 190.53 42.489 190.428 42.489C190.326 42.489 190.241 42.7892 190.241 42.7892C190.241 42.7892 191.618 36.4287 187.607 36.4287C185.092 36.4287 181.625 39.4495 179.909 42.2075C178.821 42.8642 176.51 44.2526 174.063 45.7348C173.128 46.2976 172.16 46.898 171.242 47.4422L171.055 47.217C166.195 41.4945 157.205 37.4419 157.579 29.7493C157.715 26.9538 158.599 19.5802 174.845 10.6493C188.151 3.33206 198.806 5.33963 200.658 9.80505C203.292 16.1843 194.965 28.042 181.132 29.7493C175.864 30.4061 173.094 28.1546 172.398 27.3102C171.667 26.4285 171.565 26.3909 171.293 26.5597C170.851 26.8224 171.123 27.6104 171.293 28.0795C171.701 29.2615 173.4 31.3629 176.289 32.4136C178.821 33.333 185.007 33.8395 192.484 30.6499C200.862 27.0664 207.405 17.1224 205.484 8.81065C203.53 0.348862 190.819 -2.42795 178.804 2.28138C171.65 5.09572 163.901 9.48609 158.327 15.2461C151.699 22.0756 150.646 28.042 151.088 30.5186C152.634 39.3556 163.663 45.1157 168.081 49.3747C167.86 49.506 167.656 49.6373 167.47 49.7499C165.26 50.9507 156.848 55.8102 154.741 60.951C152.362 66.7673 155.115 70.9513 156.95 71.5141C162.626 73.2591 168.438 70.1257 171.582 64.9661C174.709 59.8065 174.335 53.1084 172.891 50.0501L172.84 49.9375L174.573 48.8118C175.694 48.0801 176.799 47.4047 177.768 46.823C177.224 48.4554 176.833 50.3878 176.629 53.2022C176.391 56.5043 177.615 60.7821 179.229 62.4707C179.943 63.2025 180.793 63.2212 181.319 63.2212C183.189 63.2212 184.038 61.5139 184.973 59.4688C186.129 56.9734 187.148 54.084 187.148 54.084C187.148 54.084 185.874 61.9079 189.357 61.9079C190.632 61.9079 191.906 60.088 192.484 59.1499V59.1686C192.484 59.1686 192.518 59.1123 192.586 58.9809C192.722 58.7558 192.79 58.6245 192.79 58.6245V58.587C193.3 57.6113 194.438 55.3786 196.138 51.6825C198.33 46.9169 200.437 40.9505 200.437 40.9505C200.437 40.9505 200.641 42.4139 201.27 44.8155C201.644 46.2414 202.46 47.7986 203.088 49.3184C202.578 50.1064 202.273 50.5567 202.273 50.5567L202.29 50.5754C201.882 51.1758 201.423 51.8138 200.947 52.4517C199.214 54.7407 197.141 57.3487 196.869 58.0992C196.546 58.9809 196.614 59.6377 197.242 60.163C197.701 60.5383 198.517 60.6133 199.384 60.5383C200.947 60.4257 202.035 59.9941 202.578 59.7314C203.428 59.3937 204.397 58.8872 205.331 58.1367C207.031 56.7483 208.067 54.7782 207.965 52.1515C207.915 50.7068 207.49 49.2809 206.963 47.93C207.116 47.6861 207.269 47.4422 207.422 47.1795C210.107 42.8454 212.18 38.0798 212.18 38.0798C212.18 38.0798 212.384 39.5432 213.013 41.9448C213.335 43.1644 213.981 44.4965 214.559 45.8098C212.044 48.0801 210.464 50.7068 209.92 52.433C208.917 55.6225 209.699 57.0672 211.177 57.4049C211.84 57.555 212.792 57.2173 213.505 56.8796C214.389 56.5607 215.46 56.0165 216.445 55.2098C218.145 53.8214 219.776 51.8888 219.691 49.2809C219.64 48.0801 219.351 46.898 218.96 45.7723C221.102 44.7967 223.872 44.2338 227.389 44.7029C234.951 45.6785 236.447 50.8945 236.158 53.0709C235.869 55.2473 234.289 56.4481 233.762 56.8233C233.235 57.1798 233.065 57.3111 233.116 57.5738C233.184 57.9678 233.422 57.9491 233.881 57.874C234.51 57.7614 237.857 56.0915 237.993 52.0764C238.197 46.9169 233.762 41.2882 225.894 41.3444ZM167.572 63.0524C165.073 66.0731 161.556 67.2176 160.06 66.242C158.446 65.21 159.075 60.7634 162.151 57.555C164.02 55.6037 166.45 53.8026 168.047 52.6956C168.404 52.4517 168.948 52.0952 169.594 51.6637C169.696 51.5886 169.764 51.5511 169.764 51.5511C169.883 51.476 170.019 51.3823 170.155 51.2884C171.293 55.8664 170.205 59.8815 167.572 63.0524ZM185.84 49.3371C184.973 51.6825 183.138 57.7051 182.033 57.3674C181.081 57.086 180.504 52.5267 181.846 48.0238C182.526 45.7536 183.97 43.0518 184.82 42.0011C186.197 40.3125 187.692 39.7497 188.066 40.4438C188.508 41.3444 186.383 47.8737 185.84 49.3371ZM200.913 57.2923C200.539 57.4988 200.199 57.6489 200.046 57.5363C199.927 57.4612 200.199 57.1798 200.199 57.1798C200.199 57.1798 202.086 54.9471 202.833 53.9151C203.258 53.3147 203.768 52.6206 204.312 51.8326V52.0577C204.312 54.7595 201.967 56.5607 200.913 57.2923ZM212.537 54.3654C212.265 54.1403 212.299 53.4461 213.217 51.2697C213.573 50.4066 214.389 48.9619 215.8 47.5923C215.969 48.1552 216.071 48.6992 216.055 49.2058C216.037 52.5831 213.862 53.8401 212.537 54.3654Z" fill="#CF649A"/>
</g>
<path d="M324.923 55.492L295.743 72V59.1456L313.925 49.1413L324.923 55.492ZM326.922 53.6844V19.1668L316.249 25.3358V47.525L326.922 53.6844ZM263.999 55.492L293.18 72V59.1456L274.988 49.1413L263.999 55.492ZM262 53.6844V19.1668L272.674 25.3358V47.525L262 53.6844ZM263.253 16.9288L293.18 0V12.424L274.003 22.9734L273.85 23.0595L263.253 16.9288ZM325.669 16.9288L295.743 0V12.424L314.919 22.9639L315.072 23.0499L325.669 16.9288Z" fill="#8ED6FB"/>
<path d="M293.18 56.2189L275.237 46.3485V26.8087L293.18 37.1668V56.2189ZM295.743 56.2189L313.685 46.3581V26.8087L295.743 37.1668V56.2189ZM276.452 24.5515L294.461 14.6525L312.471 24.5515L294.461 34.9479L276.452 24.5515Z" fill="#1C78C0"/>
<g clip-path="url(#clip3_232_219)">
<path d="M418.922 2H350.922V70H418.922V2Z" fill="#F7DF1E"/>
<path d="M396.601 55.1253C397.971 57.3617 399.753 59.0056 402.905 59.0056C405.552 59.0056 407.244 57.6823 407.244 55.8538C407.244 53.6627 405.506 52.8867 402.592 51.6119L400.994 50.9265C396.383 48.9621 393.32 46.5011 393.32 41.2986C393.32 36.5062 396.971 32.858 402.678 32.858C406.741 32.858 409.661 34.2719 411.766 37.9742L406.79 41.1691C405.695 39.2046 404.513 38.4307 402.678 38.4307C400.806 38.4307 399.62 39.618 399.62 41.1691C399.62 43.086 400.807 43.8621 403.549 45.0494L405.146 45.7337C410.576 48.0619 413.641 50.4354 413.641 55.7718C413.641 61.5248 409.122 64.6766 403.052 64.6766C397.118 64.6766 393.284 61.8486 391.408 58.1421L396.601 55.1253ZM374.028 55.679C375.032 57.4599 375.945 58.9657 378.141 58.9657C380.24 58.9657 381.564 58.1443 381.564 54.9504V33.2228H387.954V55.0368C387.954 61.6533 384.075 64.6647 378.413 64.6647C373.297 64.6647 370.334 62.017 368.827 58.828L374.028 55.679Z" fill="black"/>
</g>
<g clip-path="url(#clip4_232_219)">
<path d="M480.237 42.4113C483.911 42.4113 486.889 39.5408 486.889 35.9999C486.889 32.459 483.911 29.5885 480.237 29.5885C476.564 29.5885 473.586 32.459 473.586 35.9999C473.586 39.5408 476.564 42.4113 480.237 42.4113Z" fill="#3B7DA1"/>
<path d="M514.308 36.0001C514.308 34.8293 513.668 33.5097 512.06 32.1105C510.456 30.7148 508.04 29.3845 504.916 28.2345C498.678 25.9391 489.953 24.4865 480.237 24.4865C470.521 24.4865 461.796 25.9391 455.559 28.2345C452.434 29.3845 450.019 30.7148 448.415 32.1105C446.807 33.5097 446.167 34.8293 446.167 36.0001C446.167 37.1709 446.807 38.4897 448.415 39.8888C450.019 41.2846 452.434 42.6157 455.559 43.7658C461.796 46.0611 470.521 47.5128 480.237 47.5128C489.953 47.5128 498.678 46.0612 504.916 43.7658C508.041 42.6157 510.456 41.2846 512.06 39.8888C513.668 38.4897 514.308 37.1709 514.308 36.0001ZM517.552 36.0001C517.552 38.4566 516.194 40.5933 514.19 42.3371C512.182 44.0841 509.37 45.5838 506.037 46.8107C499.356 49.2694 490.233 50.758 480.237 50.758C470.241 50.7579 461.119 49.2694 454.438 46.8107C451.104 45.5838 448.293 44.0841 446.285 42.3371C444.281 40.5933 442.922 38.4566 442.922 36.0001C442.922 33.5436 444.281 31.4071 446.285 29.6632C448.293 27.9161 451.104 26.4166 454.438 25.1896C461.119 22.7309 470.241 21.2424 480.237 21.2423C490.233 21.2423 499.356 22.7309 506.037 25.1896C509.371 26.4166 512.182 27.9161 514.19 29.6632C516.194 31.4071 517.552 33.5436 517.552 36.0001Z" fill="#3B7DA1"/>
<path d="M461.602 4.78823C463.755 3.58973 466.307 3.64333 468.87 4.44253C471.437 5.24277 474.19 6.83867 476.964 9.01187C482.521 13.3646 488.427 20.2433 493.432 28.5988C498.436 36.9529 501.668 45.3285 502.803 52.1574C503.37 55.5658 503.429 58.6802 502.86 61.2472C502.288 63.8216 501.039 66.0055 498.873 67.2111C496.72 68.4096 494.168 68.3569 491.605 67.5578C489.038 66.7575 486.285 65.1616 483.511 62.9884C477.955 58.6357 472.048 51.7571 467.043 43.4015C462.039 35.0473 458.807 26.6719 457.672 19.8429C457.106 16.4345 457.046 13.3201 457.615 10.7531C458.187 8.17852 459.436 5.99378 461.602 4.78823ZM467.905 7.54019C465.837 6.89565 464.285 7.00903 463.18 7.62417C462.087 8.23226 461.23 9.44335 460.783 11.4552C460.335 13.4749 460.346 16.1392 460.873 19.3107C461.926 25.642 464.975 33.6342 469.827 41.7345C474.679 49.8333 480.338 56.3815 485.512 60.4347C488.103 62.4644 490.507 63.8166 492.571 64.4601C494.638 65.1046 496.19 64.9912 497.295 64.3761C498.388 63.768 499.245 62.5563 499.692 60.5441C500.14 58.5246 500.129 55.8608 499.602 52.6896C498.549 46.3584 495.5 38.3661 490.648 30.2658C485.796 22.1669 480.137 15.6189 474.963 11.5656C472.372 9.53576 469.968 8.18369 467.905 7.54019Z" fill="#3B7DA1"/>
<path d="M491.605 4.44267C494.168 3.64357 496.719 3.59021 498.872 4.78838C501.039 5.99391 502.288 8.17861 502.86 10.7532C503.429 13.3203 503.37 16.4346 502.803 19.8431C501.668 26.672 498.436 35.0475 493.432 43.4017C488.427 51.7572 482.521 58.6358 476.964 62.9886C474.19 65.1618 471.437 66.7577 468.87 67.5579C466.307 68.3571 463.756 68.4097 461.602 67.2112C459.436 66.0056 458.187 63.8218 457.616 61.2474C457.046 58.6803 457.106 55.566 457.672 52.1575C458.807 45.3286 462.039 36.9531 467.043 28.5989C472.048 20.2434 477.955 13.3648 483.511 9.01201C486.285 6.83882 489.038 5.24292 491.605 4.44267ZM497.295 7.62431C496.19 7.00919 494.638 6.89583 492.571 7.54033C490.507 8.18383 488.103 9.53594 485.512 11.5657C480.338 15.619 474.679 22.1671 469.827 30.2659C464.975 38.3663 461.926 46.3585 460.873 52.6897C460.346 55.861 460.335 58.5247 460.783 60.5442C461.23 62.5564 462.087 63.7682 463.18 64.3763C464.285 64.9914 465.838 65.1048 467.905 64.4603C469.968 63.8168 472.372 62.4646 474.963 60.4349C480.137 56.3816 485.796 49.8334 490.648 41.7347C495.5 33.6343 498.549 25.6421 499.602 19.3108C500.129 16.1394 500.14 13.475 499.692 11.4554C499.245 9.44354 498.388 8.23243 497.295 7.62431Z" fill="#3B7DA1"/>
</g>
<defs>
<clipPath id="clip0_232_219">
<rect width="43" height="64" fill="white" transform="translate(0 4)"/>
</clipPath>
<clipPath id="clip1_232_219">
<rect width="60" height="68" fill="white" transform="translate(67 2)"/>
</clipPath>
<clipPath id="clip2_232_219">
<rect width="87" height="72" fill="white" transform="translate(151)"/>
</clipPath>
<clipPath id="clip3_232_219">
<rect width="68" height="68" fill="white" transform="translate(350.922 2)"/>
</clipPath>
<clipPath id="clip4_232_219">
<rect width="74.6299" height="64.2756" fill="white" transform="translate(442.922 3.86221)"/>
</clipPath>
</defs>
</svg>
