<svg width="24" height="24" viewBox="0 0 24 24">
  <path d="M6.3352 4.1855C8.6282 5.9069 11.0945 9.3972 12 11.2703c.9055-1.8731 3.3717-5.3635 5.6648-7.0848C19.3193 2.9434 22 1.9824 22 5.0403c0 .6107-.3503 5.1307-.5555 5.8645-.7138 2.551-3.3152 3.2017-5.6293 2.8079 4.0448.6883 5.0738 2.9686 2.8517 5.249-4.2203 4.3307-6.0659-1.0866-6.539-2.4749-.0865-.2544-.1272-.3734-.1279-.2724-.0007-.1013-.041.018-.1279.2724-.4728 1.3883-2.3183 6.8056-6.539 2.4749-2.222-2.2804-1.1931-4.5607 2.8517-5.249-2.3141.3938-4.9155-.2569-5.6293-2.8079C2.35 10.171 2 5.651 2 5.0403 2 1.982 4.6807 2.943 6.3352 4.1855Z"/>
</svg>
