<svg width="24" height="24" viewBox="0 0 24 24">
  <path d="M6.335 4.186c2.293 1.72 4.76 5.211 5.665 7.084.906-1.873 3.372-5.363 5.665-7.084C19.319 2.943 22 1.982 22 5.04c0 .611-.35 5.131-.555 5.865-.714 2.55-3.316 3.202-5.63 2.808 4.045.688 5.074 2.968 2.852 5.249-4.22 4.33-6.066-1.087-6.54-2.475-.086-.255-.126-.374-.127-.273 0-.1-.041.018-.128.273-.473 1.388-2.318 6.805-6.539 2.475-2.222-2.28-1.193-4.561 2.852-5.25-2.314.395-4.916-.256-5.63-2.807C2.35 10.17 2 5.65 2 5.04c0-3.058 2.68-2.097 4.335-.854"/>
</svg>
