<svg width="24" height="24" viewBox="0 0 24 24">
  <path d="M19.14 1A3.86 3.86 0 0 1 23 4.86v4.114a4 4 0 0 0-.278-.01h-.02a3.56 3.56 0 0 0-2.804 1.345c-.578.715-.928 1.682-1.013 2.77l-.008.098-.005.093-.007.174a7 7 0 0 0 0 .285c.057 2.461 1.386 4.428 3.748 4.428q.199 0 .387-.018v1.002A3.86 3.86 0 0 1 19.14 23H4.86A3.86 3.86 0 0 1 1 19.14V4.86A3.86 3.86 0 0 1 4.86 1zM5.04 6.252l.018.004c.646.146.974.363.974 1.148v9.19c0 .786-.329 1.003-.975 1.15l-.018.003v.135h2.59v-.134l-.017-.004c-.646-.146-.974-.364-.974-1.148V7.938l4.225 9.944h.24l4.35-10.222v9.162c-.056.62-.382.811-.967.944l-.017.005v.132h4.511v-.133l-.016-.004c-.586-.133-.92-.324-.976-.944l-.003-9.418h.003c0-.785.33-1.002.976-1.148l.017-.004v-.135h-3.544l-3.289 7.733-3.29-7.733H5.04z"/>
  <path d="M23 16.14c-1.154-.34-2-1.555-2.026-3.032l.006-.298H23zm-.313-6.66a1.3 1.3 0 0 1 .313.043v2.82h-1.976c.074-1.65.667-2.842 1.662-2.863"/>
</svg>
