<?xml version="1.0" encoding="UTF-8"?>
<svg xmlns="http://www.w3.org/2000/svg" version="1.1" viewBox="0 0 24 24">
  <!-- Generator: Adobe Illustrator 29.8.2, SVG Export Plug-In . SVG Version: 2.1.1 Build 3)  -->
  <defs>
    <style>
      .st0 {
        fill: blue;
      }

      .st1 {
        fill: #fff;
      }

      .st2 {
        display: none;
      }
    </style>
  </defs>
  <g id="Layer_1" class="st2">
    <path d="M12,2c-.6,0-1,.4-1,1v1.1c-2.9.5-5,3-5,5.9v6h-1c-.6,0-1,.4-1,1s.4,1,1,1h14c.6,0,1-.4,1-1s-.4-1-1-1h-1v-6c0-3-2.2-5.4-5-5.9v-1.1c0-.6-.4-1-1-1M12,21c-1.2,0-2.2-.8-2.4-2h4.9c-.2,1.2-1.3,2-2.5,2"/>
  </g>
  <g id="Layer_2">
    <path class="st1" d="M34.8,14.8c0-.2-.1-.4-.2-.6-.1-.4-.2-.7-.3-1.1-.1-.4-.2-.7-.3-1.1-.1-.4-.2-.7-.3-1.1,0-.2-.1-.4-.2-.6,0-.2-.1-.3-.2-.4,0-.1-.2-.3-.3-.4h-.1c0-.1,0-.1-.1-.2-.1,0-.3,0-.4,0-.2,0-.4.3-.4.6,0,.1,0,.3,0,.4,0,0,0,.2,0,.3,0,.2.1.4.2.5.1.4.2.7.3,1.1.1.4.2.7.3,1.1.1.4.2.7.4,1.1,0,.2.1.4.2.6,0,.1,0,.2.1.3,0,.1,0,.3.2.4,0,.1.2.2.3.3.1,0,.3,0,.4,0,.3,0,.5-.3.5-.6,0-.2,0-.5-.2-.7Z"/>
    <g>
      <path class="st1" d="M51.5,8.8c0-.3,0-.6-.2-.9,0-.3-.2-.5-.3-.8-.2-.4-.5-.8-.8-1.2-.6-.7-1.5-1.3-2.4-1.7-.9-.4-2-.5-3-.5-1,0-2.1.2-3,.8-.9.5-1.5,1.3-2,2.2-.5.9-.8,1.9-.9,2.9,0,.5-.1,1.1-.1,1.6,0,.5,0,1.1.2,1.6,0,.5.2,1,.4,1.4.2.5.5,1,1,1.3.2.1.5.2.8.2.3,0,.5-.2.5-.5,0-.3-.2-.5-.5-.5.1,0,0,0,0,0,0,0,0,0,0,0,0,0,0,0,0,0,0,0,0,0,0,0,0,0,0,0,0,0,0,0,0,0,0,0,0,0,0,0,0,0,0,0,0,0,0,0,0,0,0-.1-.1-.2,0,0,0,0,0,0,0,0,0,0,0,0,0-.2-.1-.4-.2-.6,0-.3-.2-.7-.2-1,0,0,0,0,0-.1,0,0,0,0,0,0,0,0,0-.2,0-.3,0-.2,0-.4,0-.5,0-.3,0-.7,0-1,0-.2,0-.3,0-.5,0,0,0-.1,0-.2,0,0,0,0,0,0,0,0,0,0,0-.1.1-.7.3-1.4.6-2,0,0,0,0,0-.1,0,0,0-.1,0-.2,0-.1.1-.3.2-.4,0-.1.2-.3.2-.4,0,0,0,0,0,0,0,0,0,0,0,0,0,0,.1-.1.2-.2,0-.1.2-.2.3-.3,0,0,.1,0,.2-.1,0,0,0,0,0,0,0,0,0,0,.1,0,.1,0,.3-.2.4-.3,0,0,0,0,.1,0,0,0,0,0,0,0,0,0,.1,0,.2,0,.3-.1.7-.2,1-.2,0,0,0,0,0,0,0,0,0,0,0,0,0,0,0,0,0,0,0,0,.2,0,.2,0,.2,0,.3,0,.5,0,.2,0,.3,0,.5,0,0,0,.2,0,.2,0,0,0,0,0,.1,0,0,0,0,0,0,0,0,0,0,0,0,0,.3,0,.7.1,1,.2,0,0,.2,0,.3,0,0,0,0,0,0,0,0,0,0,0,0,0,.2,0,.3.2.5.2.1,0,.3.2.4.3,0,0,0,0,0,0,0,0,0,0,0,0,0,0,.1.1.2.2.1.1.2.2.4.4,0,0,.1.1.2.2,0,0,0,0,0,0,0,0,0,0,0,0,0,0,0,0,0,0,0,0,0,0,0,0,0,0,0,0,0,0,0,0,0,0,0,0,0,0,0,0,0,0,.2.3.3.5.5.8.1.3.2.6.2.9,0,.5,0,1.1,0,1.6,0,.6,0,1.1-.1,1.7,0,.6,0,1.1-.1,1.7,0,.2,0,.3,0,.5-.4.2-.6.5-.4.9.1.5.4.8.8,1.1.5.3,1.2,0,1.3-.5,0-.3,0-.7.1-1,0-.3,0-.6,0-.8,0-.6.1-1.1.1-1.7,0-.6,0-1.1.1-1.7,0-.5,0-1.1,0-1.6Z"/>
      <path class="st1" d="M49,6.9s0,0,0,0,0,0,0,0c0,0,0,0,0,0,0,0,0,0,0,0,0,0,0,0,0,0Z"/>
      <path class="st1" d="M44.1,5.2c0,0-.2,0,0,0h0Z"/>
    </g>
    <g>
      <path class="st0" d="M23.7,24.3s0,0,0,0c0,0,0,0-.1,0,0,0,.1,0,.2,0Z"/>
      <path class="st0" d="M26.5,22.7s0,0,0-.1c0,0,0,0,0-.1,0,0,0,0,0-.1,0,0,0-.1-.1-.2,0,0-.2-.2-.3-.2,0,0-.2,0-.3,0,0,0-.2,0-.3,0-.2,0-.4,0-.6,0-.3,0-.5,0-.8,0-.2,0-.5,0-.7.1-.1,0-.2,0-.3.1,0,0,0,0,0,0,0,0,0-.1,0-.2,0-.2-.1-.5-.2-.7,0-.1-.1-.3-.3-.3-.1,0-.3,0-.4,0-.1,0-.3.1-.3.3,0,0,0,0,0,.1,0,0,0,.2,0,.3,0,.2,0,.5.1.7,0,.2,0,.4.1.6,0,.1.1.3.2.4,0,.1.2.2.3.3,0,.1.2.2.3.3,0,0,.2.1.2.1.1,0,.3.1.4.2.1,0,.3,0,.4,0,.2,0,.4,0,.7,0,.3,0,.5,0,.8-.1.2,0,.5-.1.7-.2,0,0,.2-.1.2-.2,0,0,0,0,.1,0,.1-.2.2-.3.3-.5,0-.2,0-.3,0-.5Z"/>
    </g>
    <g>
      <path class="st0" d="M18,9.5c0,0,0,.1,0,.2v-.2s0,0,0,0c0,0,0,0,0,0Z"/>
      <path class="st0" d="M20.6,16.7c-.1-.3-.4-.6-.8-.7-.1,0-1.6-.2-1.6-.1,0-.4,0-.8.1-1.1,0,.1,0,.2,0,.3.1-.5,0-1.1,0-1.6,0-.4,0-.9,0-1.3,0-.9-.2-1.8-.3-2.8,0,0,0-.1,0-.2,0,0,0,0,0,.1,0-.9-.2-1.8-.6-2.6-.4-.8-1.2-1.5-2-1.9-.7-.4-1.5-.6-2.3-.8,0-.5.2-1,.3-1.5h0c-.2-1.7-2.6-1.5-2.5,0,0,.4,0,.8,0,1.3-.3,0-.6,0-.9.2-.4.2-.8.3-1.2.6-.4.3-.8.6-1.1,1.1,0,0,0,0,0,0-.8.9-1.3,2-1.5,3.1,0,0,0,.1,0,.2-.1.4-.2.8-.2,1.2,0,0,0,0,0,.1,0,.8,0,1.7,0,2.5,0,.7,0,1.3,0,2,0,.3-.1.7-.2,1,0,0,0,.1,0,.2-.3,0-.5,0-.8,0-.1,0-.3,0-.4,0-.5,0-.9.3-.9.8-.2,1.4,2.2,1.3,3.1,1.4,1.9.2,3.9.1,5.8.1,1.4,0,2.9-.1,4.3-.4.4,0,.7-.2,1.1-.3.2,0,.3-.1.5-.1,0,0,.5.2.6.3.3,0,.6,0,.9,0,.5-.2.9-.7.7-1.2Z"/>
      <path class="st0" d="M14.3,19.4c-.7-.4-2,0-3-.1-.5,0-1.2-.2-1.7,0,0,1.3,1.4,2.1,2.6,1.9.9,0,2.3-.6,2.1-1.7h0Z"/>
    </g>
  </g>
</svg>